<svg xmlns="http://www.w3.org/2000/svg" viewBox="0 0 130 35">
  <path fill="none" d="M0 0h130v35H0z" />
  <g fill="#86B940">
    <path
      d="M127.213 28.6v-3.974c0-2.351-1.212-3.364-3.167-3.364-1.514 0-2.512.897-2.949 1.755V17.99h-3.573v1.694h1.365V30.31h3.473V28.6h-1.265v-2.355c0-1.618.969-2.977 2.522-2.977 1.115 0 1.393.734 1.393 1.803v5.239h3.488V28.6z" />
    <path
      d="M117.19 27.732c-.534.384-1.454.927-2.546.927-1.517 0-2.782-.987-2.782-2.803 0-1.612.991-2.722 2.601-2.722.746 0 1.651.263 1.651.862v.587h1.905v-1.207c0-1.576-2.146-2.12-3.619-2.12-2.721 0-4.761 2.011-4.761 4.637 0 2.861 2.298 4.621 4.88 4.621 1.542 0 2.831-.675 3.5-1.23zm-10.877-.993c0-1.671.793-3.224 2.587-3.224h.54V21.34h-.404c-1.352 0-2.417 1.004-2.802 2.274v-1.088c0-.742-.402-1.068-1.188-1.068h-2.301v1.695h.992c.237 0 .383.139.383.384v6.772h3.463V28.6h-1.27zm-3.871 1.861c-.241 0-.382-.117-.382-.371v-3.484c0-2.254-1.271-3.487-3.637-3.487-2.13 0-3.505 1.087-3.505 1.087l.809 1.534s1.188-.858 2.5-.858c.927 0 1.63.397 1.63 1.524v.3h-.56c-1.416 0-4.966.283-4.966 2.989 0 1.792 1.421 2.68 2.927 2.68 1.873 0 2.653-1.417 2.778-1.665v.52c0 .502.311.942 1.118.942h2.094V28.6zm-2.56-2.122c0 1.111-.848 2.38-2.058 2.38-.809 0-1.267-.542-1.267-1.21 0-1.332 2.094-1.471 2.962-1.471h.362v.301zm-7.132 1.474c-.208.151-1.095.723-2.346.723-1.336 0-2.521-.83-2.649-2.121h6.289v-.595c.003-4.945-4.054-4.699-4.054-4.699-2.659 0-4.497 1.899-4.497 4.626 0 2.527 1.82 4.646 4.748 4.646 1.94 0 3.092-.804 3.348-1.008zm-2.812-4.911c1.117 0 1.914.684 2.132 1.824h-4.264c.218-1.14 1.014-1.824 2.132-1.824m-11.553 3.296v.91c0 .809 1.007 1.268 2.176 1.268 1.244 0 2.12-.534 2.12-1.526 0-1.24-1.39-1.639-2.822-2.201-1.649-.624-3.263-1.374-3.263-3.57 0-2.479 2.011-3.432 4.127-3.432 1.951 0 3.916.751 3.916 2.16v1.616h-2.077v-.827c0-.623-.914-.95-1.839-.95-1.004 0-1.837.404-1.837 1.352 0 1.128 1.149 1.515 2.423 2.007 1.853.653 3.688 1.384 3.688 3.694 0 2.511-2.116 3.675-4.436 3.675-2.059 0-4.236-.92-4.236-2.779v-1.396h2.06zm-8.735-3.184v-1.694h-4.366v1.694h1.083l3.018 7.407c-.485 1.261-1.182 1.632-1.777 1.637-.406 0-.73-.114-.951-.216v1.879c.301.073.667.145 1.087.145 1.511 0 2.775-.812 3.442-2.552l3.246-8.3h1.023v-1.694H71.27v1.694h1.002l-1.815 5.109-1.813-5.109m-3.361 5.423c-.691-.02-.867-.438-.867-1.217V17.99H60.87v1.689h1.371v7.808c0 2.423 1.298 2.887 2.702 2.887h.794v-1.798zm-5.28-10.586h-2.207v1.96h2.207zm0 10.61v-7.142h-3.578v1.695h1.371v7.156h3.464V28.6zm-4.357 0v-3.974c0-2.339-1.149-3.364-2.936-3.364-1.4 0-2.5.883-2.98 1.913h-.036c-.345-1.352-1.319-1.913-2.552-1.913-1.457 0-2.479 1.064-2.927 1.972v-.785c0-.625-.388-.989-1.163-.989h-2.307v1.694h.986c.24 0 .382.122.382.365v6.791h3.469V28.6h-1.264v-2.096c0-1.595.707-3.236 2.271-3.236 1.041 0 1.196.813 1.196 1.758v5.284h3.475V28.6h-1.293v-2.201c0-1.631.749-3.131 2.262-3.131 1.021 0 1.208.755 1.208 1.758v5.284h3.487V28.6zm-15.197 0c-.239 0-.378-.117-.378-.371v-3.484c0-2.254-1.271-3.487-3.643-3.487-2.139 0-3.513 1.087-3.513 1.087l.816 1.534s1.184-.858 2.504-.858c.914 0 1.629.397 1.629 1.524v.3h-.553c-1.426 0-4.978.283-4.978 2.989 0 1.792 1.42 2.68 2.932 2.68 1.862 0 2.653-1.417 2.773-1.665v.52c0 .502.311.942 1.13.942h2.077V28.6zm-2.567-2.122c0 1.111-.85 2.38-2.048 2.38-.817 0-1.283-.542-1.283-1.21 0-1.332 2.097-1.471 2.966-1.471h.365zm-12.231-6.786h-1.482v-1.695h8.799v3.187h-1.945v-1.266h-3.107v3.598h4.004v1.701h-4.004v3.389h1.633v1.708h-5.38v-1.708h1.482z" />
  </g>
  <path
    d="M12.848 27.6c1.614-1.07 2.87-2.617 3.387-4.756h-.902c-.562 1.539-1.681 2.523-3.082 3.027-.364-1.262-.55-2.604-.55-3.993 0-2.989.883-5.773 2.413-8.096H12.25c-1.467 2.041-2.463 4.437-2.837 7.035-1.037-.651-1.849-1.475-2.331-2.819h-.974c.566 2.086 1.654 3.532 3.151 4.651-.005.163-.009.326-.009.49 0 4.085 1.521 7.815 4.036 10.651h4.445c-2.137-1.585-3.841-3.709-4.883-6.19"
    fill="#9C947A" />
  <path
    d="M23.731 12.765h-3.919V8.848h3.919zm-5.664 1.744h7.407V7.103h-7.407zm1.746 7.406H15.45v-4.353h4.362v4.353zm-6.108 1.745h7.852v-7.843h-7.852z"
    fill="#BBB7B1" />
  <path d="M15.45 13.2h-3.49V9.718h3.49zm-4.798 1.309h6.107V8.411h-6.107z" fill="#9C947A" />
  <path d="M8.042 8.411h-2.18V6.23h2.18zM4.554 9.718h4.791V4.921H4.554z" fill="#BBB7B1" />
  <path
    d="M15.45 5.793h-3.49V2.304h3.49zm-4.798 1.309h6.107V.995h-6.107zM7.607 17.126H3.245v-4.361h4.362zM1.5 18.871h7.845V11.02H1.5z"
    fill="#86B940" />
</svg>
