<svg xmlns="http://www.w3.org/2000/svg" viewBox="0 0 27 35">
  <path fill="none" d="M0 0h130v35H0z" />
  <path
    d="M12.848 27.6c1.614-1.07 2.87-2.617 3.387-4.756h-.902c-.562 1.539-1.681 2.523-3.082 3.027-.364-1.262-.55-2.604-.55-3.993 0-2.989.883-5.773 2.413-8.096H12.25c-1.467 2.041-2.463 4.437-2.837 7.035-1.037-.651-1.849-1.475-2.331-2.819h-.974c.566 2.086 1.654 3.532 3.151 4.651-.005.163-.009.326-.009.49 0 4.085 1.521 7.815 4.036 10.651h4.445c-2.137-1.585-3.841-3.709-4.883-6.19"
    fill="#9C947A" />
  <path
    d="M23.731 12.765h-3.919V8.848h3.919zm-5.664 1.744h7.407V7.103h-7.407zm1.746 7.406H15.45v-4.353h4.362v4.353zm-6.108 1.745h7.852v-7.843h-7.852z"
    fill="#BBB7B1" />
  <path d="M15.45 13.2h-3.49V9.718h3.49zm-4.798 1.309h6.107V8.411h-6.107z" fill="#9C947A" />
  <path d="M8.042 8.411h-2.18V6.23h2.18zM4.554 9.718h4.791V4.921H4.554z" fill="#BBB7B1" />
  <path
    d="M15.45 5.793h-3.49V2.304h3.49zm-4.798 1.309h6.107V.995h-6.107zM7.607 17.126H3.245v-4.361h4.362zM1.5 18.871h7.845V11.02H1.5z"
    fill="#86B940" />
</svg>
