<svg xmlns="http://www.w3.org/2000/svg" viewBox="0 0 512.007 512.007">
  <path
    d="M121.835 255.249c6.229 16.196 26.803 68.42 41.737 90.82l1.348 2.039c10.957 16.614 29.295 44.425 91.085 44.425 61.79 0 80.128-27.81 91.085-44.425l1.348-2.039c14.933-22.4 35.507-74.624 41.737-90.82 11.145-2.773 19.43-12.86 19.43-24.849v-34.133c0-11.127-7.134-20.617-17.067-24.141V128c0-33.69-17.741-95.923-83.362-101.931-.128-4.028-1.459-7.27-2.944-9.668C297.844 2.85 274.292 0 256.005 0c-151.842 0-153.6 143.616-153.6 145.067 0 4.71 3.814 8.525 8.516 8.525h.017c4.702 0 8.516-3.806 8.533-8.508.017-5.231 1.937-128.017 136.533-128.017 24.132 0 33.801 5.222 35.712 8.311.265.435.99 1.604-.683 4.941a8.538 8.538 0 00.375 8.303 8.557 8.557 0 007.262 4.045c75.657 0 76.791 81.86 76.8 85.333v51.2a8.53 8.53 0 008.533 8.533c4.71 0 8.533 3.831 8.533 8.533V230.4c0 4.702-3.823 8.533-8.533 8.533a8.55 8.55 0 00-7.996 5.538c-.247.674-25.446 67.644-41.771 92.126l-1.399 2.116c-10.223 15.514-24.235 36.753-76.834 36.753-52.599 0-66.611-21.239-76.834-36.753l-1.399-2.116c-16.324-24.482-41.523-91.452-41.771-92.126a8.549 8.549 0 00-7.996-5.538c-4.71 0-8.533-3.831-8.533-8.533v-34.133c0-2.313.922-4.412 2.423-5.948 3.089 6.955 9.421 13.21 20.053 14.268l29.193 21.897c2.27 16.623 16.418 29.517 33.664 29.517h17.067c18.825 0 34.133-15.309 34.133-34.133 0 18.825 15.309 34.133 34.133 34.133h17.067c17.237 0 31.394-12.894 33.664-29.517l31.189-23.39a8.527 8.527 0 001.707-11.947c-2.825-3.772-8.175-4.548-11.947-1.707l-21.751 16.316c-3.251-10.402-12.86-18.022-24.329-18.022h-34.133c-14.114 0-25.6 11.486-25.6 25.6 0-14.114-11.486-25.6-25.6-25.6H196.27c-11.469 0-21.077 7.62-24.328 18.022l-16.282-12.211c6.716-16.23 12.8-40.235 14.524-57.088 26.897-.478 104.713-3.763 139.332-25.37 7.851 30.31 33.058 55.817 34.321 57.08a8.525 8.525 0 0012.066 0 8.525 8.525 0 000-12.066c-.316-.316-31.633-31.983-31.633-62.234a8.541 8.541 0 00-6.255-8.226c-3.661-1.016-7.629.546-9.591 3.831-12.425 20.693-93.022 29.995-146.287 29.995a8.53 8.53 0 00-8.533 8.533c0 13.858-6.554 41.515-13.508 58.539-2.722-1.638-3.49-4.693-3.558-7.339a8.53 8.53 0 00-8.533-8.533c-14.114 0-25.6 11.486-25.6 25.6V230.4c0 11.989 8.286 22.076 19.43 24.849zm151.236-41.916c0-4.702 3.823-8.533 8.533-8.533h34.133c4.71 0 8.533 3.831 8.533 8.533v8.533c0 9.412-7.654 17.067-17.067 17.067h-17.067c-9.412 0-17.067-7.654-17.067-17.067v-8.533zm-85.333 0c0-4.702 3.823-8.533 8.533-8.533h34.133c4.71 0 8.533 3.831 8.533 8.533v8.533c0 9.412-7.654 17.067-17.067 17.067h-17.067c-9.412 0-17.067-7.654-17.067-17.067v-8.533z" />
  <path
    d="M298.663 307.226c.009-4.702-3.797-8.533-8.499-8.559-.162 0-15.42-.171-30.345-7.629a8.515 8.515 0 00-7.629 0c-14.925 7.458-30.182 7.629-30.319 7.629-4.719 0-8.533 3.823-8.533 8.533s3.814 8.533 8.533 8.533c.725 0 16.853-.094 34.133-7.646 17.28 7.552 33.408 7.646 34.133 7.646 4.703 0 8.509-3.806 8.526-8.507zM247.471 324.267a8.53 8.53 0 00-8.533 8.533 8.53 8.53 0 008.533 8.533h17.067a8.53 8.53 0 008.533-8.533 8.53 8.53 0 00-8.533-8.533h-17.067zM511.749 501.393l-8.721-34.756c-12.706-38.135-73.114-56.687-184.67-56.687-.879 0-1.758 0-2.645.009a8.514 8.514 0 00-8.337 6.852l-17.067 84.975a8.536 8.536 0 006.682 10.052c4.608.896 9.114-2.074 10.044-6.69l15.693-78.114c97.724.452 154.436 15.957 163.934 44.373l8.533 34.133a8.527 8.527 0 0010.343 6.204 8.533 8.533 0 006.211-10.351zM204.634 416.461a8.518 8.518 0 00-8.363-6.861c-116.386 0-174.148 17.596-187.477 57.66L.261 501.393c-1.152 4.582 1.638 9.207 6.212 10.351a8.272 8.272 0 002.074.256 8.535 8.535 0 008.269-6.46l8.346-33.51c9.95-29.841 63.667-44.689 164.122-45.338l15.693 78.447a8.5 8.5 0 0010.035 6.699c4.617-.93 7.62-5.427 6.69-10.044l-17.068-85.333zM256.005 409.6c-14.114 0-25.6 11.486-25.6 25.6 0 11.11 7.159 20.489 17.067 24.021v44.245a8.53 8.53 0 008.533 8.533 8.53 8.53 0 008.533-8.533V459.23c9.907-3.541 17.067-12.919 17.067-24.03 0-14.114-11.486-25.6-25.6-25.6zm0 34.133c-4.71 0-8.533-3.831-8.533-8.533s3.823-8.533 8.533-8.533c4.71 0 8.533 3.831 8.533 8.533s-3.823 8.533-8.533 8.533z" />
  </svg>
