<svg xmlns="http://www.w3.org/2000/svg" viewBox="0 0 512.002 512.002">
  <path
    d="M366.934 128.001a8.53 8.53 0 00-8.533-8.533c-2.091 0-51.2-.683-51.2-59.733 0-4.71-3.814-8.533-8.533-8.533s-8.533 3.823-8.533 8.533c0 75.921 67.584 76.8 68.267 76.8a8.532 8.532 0 008.532-8.534zM256.001 196.268c0-14.114-11.486-25.6-25.6-25.6h-34.133c-11.46 0-21.069 7.62-24.329 18.022l-21.751-16.316c-3.772-2.825-9.114-2.048-11.947 1.707-2.825 3.772-2.065 9.122 1.707 11.947l31.189 23.39c2.278 16.623 16.418 29.517 33.664 29.517h17.067c18.825 0 34.133-15.309 34.133-34.133 0 18.825 15.309 34.133 34.133 34.133h17.067c17.237 0 31.394-12.894 33.664-29.517l31.189-23.39a8.527 8.527 0 001.707-11.947c-2.825-3.772-8.175-4.548-11.947-1.707l-21.751 16.316c-3.251-10.402-12.86-18.022-24.329-18.022h-34.133c-14.114 0-25.6 11.485-25.6 25.6zm-17.067 8.533c0 9.412-7.654 17.067-17.067 17.067H204.8c-9.412 0-17.067-7.654-17.067-17.067v-8.533c0-4.702 3.831-8.533 8.533-8.533h34.133c4.702 0 8.533 3.831 8.533 8.533v8.533zm85.334-8.533v8.533c0 9.412-7.654 17.067-17.067 17.067h-17.067c-9.412 0-17.067-7.654-17.067-17.067v-8.533c0-4.702 3.823-8.533 8.533-8.533h34.133c4.712-.001 8.535 3.831 8.535 8.533zM298.659 307.226c.009-4.702-3.797-8.533-8.499-8.559-.162 0-15.42-.171-30.345-7.629a8.515 8.515 0 00-7.629 0c-14.925 7.458-30.191 7.629-30.319 7.629-4.71 0-8.533 3.823-8.533 8.533s3.823 8.533 8.533 8.533c.725 0 16.845-.094 34.133-7.646 17.28 7.552 33.408 7.646 34.133 7.646 4.703.001 8.509-3.805 8.526-8.507z" />
  <path
    d="M120.986 237.953c4.378 18.611 18.91 76.877 34.048 99.584 10.974 16.452 36.668 54.997 100.966 54.997s89.993-38.545 100.966-54.997c15.138-22.707 29.67-80.973 34.048-99.584 10.718-3.055 18.586-12.937 18.586-24.619v-34.133c0-11.127-7.134-20.617-17.067-24.141v-44.126C392.533 109.825 390.971.001 256 .001c-151.842 0-153.6 126.72-153.6 128 0 4.702 3.806 8.516 8.516 8.525h.017c4.693 0 8.516-3.806 8.533-8.499.017-4.54 2.048-110.959 136.533-110.959 117.581 0 119.441 90.061 119.467 93.867v51.2a8.53 8.53 0 008.533 8.533c4.71 0 8.533 3.831 8.533 8.533v34.133c0 4.702-3.823 8.533-8.533 8.533a8.553 8.553 0 00-8.337 6.682c-.162.751-16.896 75.52-32.896 99.516-10.257 15.386-31.599 47.403-86.767 47.403s-76.51-32.017-86.767-47.403c-15.992-23.979-32.734-98.765-32.905-99.516a8.536 8.536 0 00-8.329-6.682c-4.702 0-8.533-3.831-8.533-8.533v-34.133c0-4.702 3.831-8.533 8.533-8.533a8.546 8.546 0 003.814-.896c2.978-1.493 72.986-37.333 72.986-110.037 0-4.71-3.823-8.533-8.533-8.533s-8.533 3.823-8.533 8.533c0 56.678-52.523 88.636-62.08 93.978-13.022 1.186-23.253 12.169-23.253 25.489v34.133c.002 11.681 7.87 21.563 18.587 24.618zM196.097 416.462a8.518 8.518 0 00-8.363-6.861c-140.399 0-168.892 27.409-178.944 57.66L.257 501.394a8.534 8.534 0 0016.555 4.147l8.354-33.51c7.339-22.025 31.718-44.527 155.58-45.338l15.693 78.447c.913 4.617 5.393 7.603 10.035 6.699 4.625-.93 7.62-5.427 6.69-10.044l-17.067-85.333zM511.745 501.394l-8.721-34.756c-7.117-21.342-39.689-57.216-178.782-56.678a8.507 8.507 0 00-8.337 6.852l-17.067 84.975a8.536 8.536 0 006.682 10.052c4.591.896 9.114-2.074 10.044-6.69l15.693-78.114c103.714.674 148.412 23.484 155.401 44.373l8.533 34.133a8.527 8.527 0 0010.343 6.204 8.534 8.534 0 006.211-10.351zM256.257 426.668h-.085c-4.71 0-8.491 3.823-8.491 8.533s3.866 8.533 8.576 8.533c4.71 0 8.533-3.823 8.533-8.533s-3.823-8.533-8.533-8.533zM256.257 494.934h-.085c-4.71 0-8.491 3.823-8.491 8.533s3.866 8.533 8.576 8.533c4.71 0 8.533-3.823 8.533-8.533s-3.823-8.533-8.533-8.533z" />
  <path
    d="M247.468 324.268a8.536 8.536 0 00-8.533 8.533 8.536 8.536 0 008.533 8.533h17.067a8.53 8.53 0 008.533-8.533 8.53 8.53 0 00-8.533-8.533h-17.067zM256.257 460.801h-.085c-4.71 0-8.491 3.823-8.491 8.533 0 4.71 3.866 8.533 8.576 8.533a8.536 8.536 0 008.533-8.533 8.536 8.536 0 00-8.533-8.533z" />
  </svg>
