<svg xmlns="http://www.w3.org/2000/svg" viewBox="0 0 512.011 512.011">
  <path
    d="M299.355 445.356c-1.621 1.536-2.56 3.755-2.56 5.973 0 2.304.939 4.437 2.56 6.059 1.536 1.621 3.755 2.475 5.973 2.475 2.304 0 4.523-.853 6.059-2.475 1.621-1.536 2.475-3.755 2.475-6.059 0-2.219-.853-4.437-2.475-5.973-3.157-3.243-8.875-3.157-12.032 0zM276.23 458.668c-1.621 1.621-2.475 3.755-2.475 6.059 0 2.219.939 4.437 2.475 5.973 1.621 1.621 3.84 2.56 6.059 2.56 2.219 0 4.437-.939 5.973-2.56 1.621-1.536 2.56-3.755 2.56-5.973 0-2.304-.939-4.437-2.56-6.059-3.158-3.157-8.875-3.157-12.032 0zM392.539 196.268a8.539 8.539 0 00-3.405-6.818c-8.55-6.443-30.729-26.957-30.729-44.382 0-4.71-3.823-8.533-8.533-8.533s-8.533 3.823-8.533 8.533c0 24.678 24.354 47.249 34.014 55.228-1.835 33.476-24.917 95.223-33.118 111.625-7.654 15.317-48.154 63.548-86.229 63.548s-78.575-48.23-86.229-63.548c-8.542-17.084-33.237-83.379-33.237-115.652V170.54c33.835-.802 157.321-6.929 218.453-52.779 3.772-2.825 4.531-8.175 1.707-11.947-2.825-3.763-8.166-4.531-11.947-1.707-65.186 48.887-215.236 49.493-216.747 49.493a8.536 8.536 0 00-8.533 8.533v34.133c0 36.625 26.871 106.965 35.029 123.281 10.394 20.77 55.834 72.986 101.504 72.986s91.11-52.215 101.504-72.986c8.158-16.314 35.029-86.654 35.029-123.279zM249.947 463.276c-1.536 1.621-2.475 3.84-2.475 6.059 0 2.219.939 4.437 2.475 6.059 1.621 1.536 3.84 2.475 6.059 2.475s4.437-.939 6.059-2.475c1.536-1.621 2.475-3.84 2.475-6.059 0-2.219-.939-4.437-2.475-6.059-3.158-3.157-8.961-3.157-12.118 0z" />
  <path
    d="M34.139 230.401c0 18.85 6.75 36.659 19.098 50.688a77.079 77.079 0 00-2.031 17.579c0 42.342 34.458 76.8 76.8 76.8 6.494 0 12.954-.819 19.191-2.432a8.528 8.528 0 006.127-10.394 8.528 8.528 0 00-10.394-6.127 59.6 59.6 0 01-14.925 1.886c-32.939 0-59.733-26.795-59.733-59.733a59.92 59.92 0 012.603-17.459 8.518 8.518 0 00-2.133-8.525c-11.307-11.298-17.536-26.308-17.536-42.283 0-19.251 9.421-37.453 25.199-48.674a8.53 8.53 0 002.116-11.742c-6.707-9.89-10.249-21.461-10.249-33.451 0-28.843 20.591-53.53 48.947-58.701a8.564 8.564 0 005.811-4.053c18.987-32.137 40.892-56.713 133.888-56.713 71.714 0 128.947 23.484 142.413 58.436a8.533 8.533 0 005.052 4.949c23.535 8.559 39.356 31.095 39.356 56.081 0 11.989-3.541 23.561-10.249 33.451a8.53 8.53 0 002.116 11.742c15.778 11.221 25.199 29.423 25.199 48.674 0 15.974-6.229 30.984-17.536 42.283a8.516 8.516 0 00-2.133 8.525 59.92 59.92 0 012.603 17.459c0 32.939-26.795 59.733-59.733 59.733a59.91 59.91 0 01-14.814-1.852c-4.574-1.186-9.207 1.579-10.377 6.144a8.533 8.533 0 006.153 10.385 76.735 76.735 0 0019.038 2.389c42.342 0 76.8-34.458 76.8-76.8 0-5.931-.683-11.819-2.031-17.579 12.348-14.029 19.098-31.838 19.098-50.688 0-22.11-9.643-43.128-26.138-57.643 5.956-11.102 9.071-23.475 9.071-36.224 0-30.865-18.748-58.82-47.044-70.733C395.475 25.704 334.598.001 256.919.001c-90.172 0-121.984 21.7-146.62 61.85-34.475 8.115-59.093 38.921-59.093 74.684 0 12.749 3.115 25.122 9.071 36.224-16.495 14.515-26.138 35.532-26.138 57.642zM316.507 424.876c-1.621 1.621-2.475 3.84-2.475 6.059 0 2.304.853 4.437 2.475 6.059 1.621 1.536 3.755 2.475 5.973 2.475 2.304 0 4.437-.939 6.059-2.475 1.621-1.621 2.475-3.755 2.475-6.059 0-2.219-.853-4.437-2.475-6.059-3.157-3.157-8.875-3.157-12.032 0zM223.664 458.668c-1.536 1.621-2.475 3.755-2.475 6.059 0 2.219.939 4.437 2.475 6.059 1.621 1.536 3.84 2.475 6.059 2.475 2.304 0 4.437-.939 6.059-2.475 1.621-1.621 2.475-3.84 2.475-6.059 0-2.219-.853-4.437-2.475-6.059-3.158-3.157-8.875-3.157-12.118 0zM337.67 411.905c1.621-1.621 2.475-3.755 2.475-6.059 0-2.219-.853-4.437-2.475-6.059-3.157-3.157-8.875-3.072-12.032.085-1.621 1.536-2.56 3.755-2.56 5.973 0 2.304.939 4.437 2.56 6.059 1.536 1.621 3.755 2.475 5.973 2.475 2.304.001 4.437-.852 6.059-2.474z" />
  <path
    d="M213.339 238.935a8.536 8.536 0 008.533-8.533v-5.615c.546.529.922.964.964 1.024a8.536 8.536 0 0011.512 3.627c4.181-2.176 5.803-7.33 3.627-11.511-2.534-4.873-10.581-13.124-24.636-13.124-14.054 0-22.101 8.252-24.636 13.124-2.125 4.087-.555 8.969 3.456 11.23 4.011 2.287 9.156.811 11.563-3.123.077-.128.495-.623 1.084-1.195v5.564c0 4.709 3.823 8.532 8.533 8.532zM256.006 332.801c20.028 0 30.507-9.907 31.633-11.034 3.294-3.294 3.285-8.567.043-11.913-3.234-3.345-8.61-3.439-12.015-.247-.265.247-6.699 6.127-19.661 6.127-12.774 0-19.208-5.709-19.652-6.118-3.336-3.251-8.678-3.217-11.981.085a8.523 8.523 0 000 12.066c1.126 1.127 11.605 11.034 31.633 11.034zM298.672 238.935a8.536 8.536 0 008.533-8.533v-5.615c.546.529.922.964.964 1.024a8.536 8.536 0 0011.512 3.627c4.181-2.176 5.803-7.33 3.627-11.511-2.534-4.873-10.581-13.124-24.636-13.124s-22.101 8.252-24.636 13.124c-2.125 4.087-.555 8.969 3.456 11.23 4.011 2.287 9.165.811 11.563-3.123.077-.128.495-.623 1.084-1.195v5.564c0 4.709 3.823 8.532 8.533 8.532zM511.571 500.771l-8.533-25.6c-8.883-26.658-62.464-65.212-136.098-65.212a8.551 8.551 0 00-7.919 5.333c-.316.802-33.015 79.642-103.014 79.642-69.99 0-102.69-79.181-103.014-79.983a8.553 8.553 0 00-7.919-5.35c-106.001 0-130.97 50.185-136.098 65.57l-8.533 25.6c-1.493 4.471.93 9.301 5.402 10.795 4.48 1.502 9.301-.93 10.795-5.402l8.533-25.6c8.465-25.412 42.974-52.514 114.381-53.845 9.293 19.703 45.577 85.282 116.454 85.282 70.827 0 107.102-65.229 116.437-84.898 64.051 1.835 108.339 35.294 114.398 53.461l8.533 25.6a8.542 8.542 0 0010.795 5.402c4.469-1.493 6.893-6.323 5.4-10.795zM375.472 281.601v17.067a8.536 8.536 0 008.533 8.533 8.536 8.536 0 008.533-8.533v-17.067a8.536 8.536 0 00-8.533-8.533 8.536 8.536 0 00-8.533 8.533z" />
  <path
    d="M188.934 405.847c0-2.219-.939-4.437-2.56-5.973-3.157-3.243-8.875-3.243-12.032 0-1.621 1.536-2.475 3.755-2.475 5.973 0 2.304.853 4.437 2.475 6.059s3.755 2.475 6.059 2.475c2.219 0 4.437-.853 5.973-2.475 1.621-1.622 2.56-3.755 2.56-6.059zM189.531 439.468c2.219 0 4.437-.939 5.973-2.475 1.621-1.621 2.475-3.755 2.475-6.059 0-2.219-.853-4.437-2.475-6.059-3.157-3.157-8.875-3.157-12.032 0-1.621 1.621-2.475 3.84-2.475 6.059 0 2.304.853 4.437 2.475 6.059 1.536 1.536 3.755 2.475 6.059 2.475zM200.624 445.356c-1.621 1.621-2.56 3.755-2.56 6.059 0 2.219.939 4.437 2.56 5.973 1.621 1.621 3.755 2.56 6.059 2.56 2.219 0 4.437-.939 5.973-2.56 1.621-1.536 2.475-3.755 2.475-5.973 0-2.304-.853-4.523-2.475-6.059-3.157-3.157-8.874-3.157-12.032 0zM119.472 281.601v17.067c0 4.71 3.823 8.533 8.533 8.533s8.533-3.823 8.533-8.533v-17.067c0-4.71-3.823-8.533-8.533-8.533s-8.533 3.823-8.533 8.533z" />
  </svg>
