<svg xmlns="http://www.w3.org/2000/svg" viewBox="0 0 512 512">
  <path
    d="M128 307.2a8.53 8.53 0 008.533-8.533V281.6a8.53 8.53 0 00-8.533-8.533 8.53 8.53 0 00-8.533 8.533v17.067A8.53 8.53 0 00128 307.2zM384 273.067a8.53 8.53 0 00-8.533 8.533v17.067A8.53 8.53 0 00384 307.2a8.53 8.53 0 008.533-8.533V281.6a8.53 8.53 0 00-8.533-8.533zM392.183 433.109c-.162-.606-.418-1.152-.7-1.715-.162-.299-.196-.64-.384-.93-.094-.128-.23-.196-.324-.324-.358-.469-.802-.845-1.254-1.246-.418-.375-.819-.742-1.306-1.016-.145-.094-.23-.23-.392-.316l-34.133-17.067a8.561 8.561 0 00-8.55.538l-51.209 34.133a8.545 8.545 0 00-3.797 7.1v30.259c-5.077 4.062-17.545 12.407-34.133 12.407-16.427 0-29.013-8.388-34.133-12.433v-30.234a8.545 8.545 0 00-3.797-7.1l-51.2-34.133a8.567 8.567 0 00-8.55-.538l-34.133 17.067c-.154.077-.239.213-.375.299-.512.29-.939.674-1.374 1.075-.435.384-.853.734-1.186 1.178-.102.137-.256.213-.35.35-.205.307-.239.657-.401.99-.265.529-.521 1.05-.674 1.63-.137.529-.179 1.05-.205 1.596-.034.538-.06 1.058.008 1.604.068.597.265 1.143.461 1.707.119.341.111.7.273 1.024.077.154.222.247.307.393.282.495.666.913 1.058 1.348.384.427.742.853 1.186 1.195.137.102.213.256.35.35l51.2 34.133a8.496 8.496 0 004.727 1.434 8.517 8.517 0 007.108-3.797c2.62-3.925 1.562-9.225-2.364-11.836l-38.972-25.975 16.555-8.277 43.281 28.851V486.4c0 2.261.896 4.437 2.5 6.033C208.102 493.235 227.2 512 256 512s47.898-18.765 48.7-19.567a8.513 8.513 0 002.5-6.033v-29.568l43.29-28.851 16.546 8.277-38.972 25.975c-3.925 2.611-4.983 7.91-2.364 11.836a8.517 8.517 0 007.108 3.797 8.496 8.496 0 004.727-1.434l51.2-34.133c.137-.094.205-.239.333-.341.478-.35.853-.794 1.254-1.246.358-.427.725-.811.998-1.289.085-.154.239-.247.324-.41.171-.35.171-.725.29-1.084.179-.538.367-1.05.435-1.613.077-.58.051-1.126.009-1.698-.024-.51-.058-1.005-.195-1.509z" />
  <path
    d="M57.037 409.165a8.78 8.78 0 002.697.435c3.575 0 6.903-2.261 8.09-5.837C68.89 400.572 93.867 324.855 93.867 256v-76.8C93.867 45.193 182.033 17.067 256 17.067c25.199 0 77.636 0 85.649 11.128.333.452.828 1.135.128 3.243a8.49 8.49 0 001.604 8.235 8.534 8.534 0 007.885 2.876c10.863-1.792 20.412.93 29.184 8.354 22.895 19.396 37.683 69.76 37.683 128.299V256c0 77.457 25.071 145.22 26.138 148.062 1.656 4.412 6.571 6.639 10.991 5.001 4.412-1.655 6.647-6.571 5.001-10.991-.257-.666-25.063-67.815-25.063-142.072v-76.8c0-50.415-11.486-114.014-43.716-141.321-9.745-8.243-20.932-12.621-32.836-12.902a19.636 19.636 0 00-3.149-6.767C343.356 1.374 303.258 0 256 0 140.442 0 76.8 63.642 76.8 179.2V256c0 66.039-24.909 141.611-25.156 142.37a8.53 8.53 0 005.393 10.795zM91.802 426.923C19.814 444.919 1.195 498.492.444 500.77c-1.493 4.471.922 9.301 5.393 10.795a8.516 8.516 0 002.696.435c3.576 0 6.904-2.261 8.09-5.837.162-.469 16.316-46.942 79.309-62.686a8.535 8.535 0 006.212-10.351c-1.143-4.565-5.777-7.355-10.342-6.203z" />
  <path
    d="M213.333 238.933a8.53 8.53 0 008.533-8.533v-5.615c.546.529.922.964.964 1.024a8.536 8.536 0 0011.512 3.627c4.173-2.176 5.803-7.33 3.627-11.511-2.534-4.873-10.59-13.124-24.636-13.124s-22.101 8.252-24.636 13.124c-2.125 4.087-.546 8.969 3.456 11.23 3.985 2.261 9.148.819 11.554-3.123.085-.128.503-.623 1.092-1.195v5.564a8.532 8.532 0 008.534 8.532zM511.556 500.77c-.751-2.278-19.371-55.851-91.358-73.847-4.574-1.161-9.199 1.638-10.342 6.204a8.536 8.536 0 006.212 10.351c62.524 15.633 78.66 60.809 79.309 62.686 1.186 3.576 4.514 5.837 8.09 5.837.888 0 1.801-.137 2.697-.435 4.471-1.495 6.886-6.324 5.392-10.796zM256 332.8c20.028 0 30.507-9.907 31.633-11.034 3.294-3.294 3.285-8.567.051-11.913-3.251-3.345-8.61-3.439-12.015-.247-.273.247-6.707 6.127-19.669 6.127-12.774 0-19.208-5.709-19.652-6.118-3.32-3.251-8.67-3.226-11.981.085a8.523 8.523 0 000 12.066c1.126 1.127 11.605 11.034 31.633 11.034zM298.667 238.933a8.53 8.53 0 008.533-8.533v-5.615c.546.529.922.964.964 1.024a8.536 8.536 0 0011.512 3.627c4.173-2.176 5.803-7.33 3.627-11.511-2.534-4.873-10.59-13.124-24.636-13.124s-22.101 8.252-24.636 13.124c-2.125 4.087-.546 8.969 3.456 11.23 3.994 2.261 9.156.819 11.554-3.123.085-.128.503-.623 1.092-1.195v5.564a8.531 8.531 0 008.534 8.532z" />
  <path
    d="M389.129 189.449c-8.542-6.443-30.729-26.957-30.729-44.382 0-4.71-3.814-8.533-8.533-8.533s-8.533 3.823-8.533 8.533c0 24.678 24.354 47.249 34.014 55.228-1.835 33.476-24.917 95.223-33.118 111.625-7.654 15.317-48.154 63.548-86.229 63.548s-78.575-48.23-86.229-63.548c-8.542-17.084-33.237-83.379-33.237-115.652V170.54c33.835-.802 157.321-6.929 218.453-52.779a8.527 8.527 0 001.707-11.947 8.527 8.527 0 00-11.947-1.707C279.561 152.994 129.51 153.6 128 153.6a8.53 8.53 0 00-8.533 8.533v34.133c0 36.625 26.871 106.965 35.029 123.281 10.385 20.77 55.834 72.986 101.504 72.986s91.119-52.216 101.504-72.986c8.158-16.316 35.029-86.656 35.029-123.281a8.539 8.539 0 00-3.404-6.817z" />
  </svg>
