<?xml version="1.0" standalone="no"?>
<!DOCTYPE svg PUBLIC "-//W3C//DTD SVG 20010904//EN"
 "http://www.w3.org/TR/2001/REC-SVG-20010904/DTD/svg10.dtd">
<svg version="1.0" xmlns="http://www.w3.org/2000/svg"
 width="1120.000000pt" height="1120.000000pt" viewBox="0 0 1120.000000 1120.000000"
 preserveAspectRatio="xMidYMid meet">
<metadata>
Created by potrace 1.11, written by Peter Selinger 2001-2013
</metadata>
<g transform="translate(0.000000,1120.000000) scale(0.100000,-0.100000)"
fill="#000000" stroke="none">
<path d="M4690 9905 l0 -980 975 0 975 0 1 25 c6 145 2 1840 -4 1840 -5 0 -5
6 0 13 4 6 8 26 8 42 0 33 -26 49 -57 33 -10 -5 -18 -5 -18 -1 0 10 -213 9
-229 -1 -6 -4 -11 -4 -11 1 0 9 -842 9 -857 0 -6 -4 -13 -4 -17 0 -3 4 -177 7
-386 7 l-380 1 0 -980z m1440 552 c0 -5 6 -5 13 0 18 11 37 13 61 3 l21 -8 -1
-543 c-1 -299 -2 -548 -3 -554 -1 -7 -187 -9 -538 -9 -296 1 -547 2 -558 3
-20 1 -20 7 -18 533 1 293 2 544 2 558 l1 25 510 0 c281 0 510 -4 510 -8z"/>
<path d="M2737 9615 c-2 -9 0 -1456 2 -1508 1 -17 8 -18 61 -15 33 1 60 1 60
-2 0 -3 317 -4 705 -2 l705 2 0 768 0 767 -765 0 c-501 0 -766 -3 -768 -10z
m1118 -753 c0 -189 -3 -346 -7 -348 -9 -6 -676 -6 -686 0 -5 3 -9 659 -3 687
1 3 157 5 348 5 l347 -1 1 -343z"/>
<path d="M7065 8921 c-7 -12 -4 -2361 3 -2362 32 -4 2346 -3 2353 2 7 4 12
1269 9 2310 l0 57 -1180 -1 c-649 0 -1182 -3 -1185 -6z m1806 -559 c0 -4 2
-285 2 -624 1 -405 -1 -619 -8 -621 -5 -2 -287 -3 -625 -3 l-615 1 -3 615 c-1
338 0 620 2 627 4 8 161 11 625 12 342 0 621 -3 622 -7z"/>
<path d="M4692 7533 l3 -977 165 -2 c91 0 168 -2 173 -2 4 -1 -8 -26 -27 -54
-46 -71 -100 -163 -128 -218 -13 -25 -26 -46 -30 -48 -5 -2 -8 -12 -8 -23 0
-10 -4 -19 -8 -19 -4 0 -23 -34 -42 -75 -19 -41 -39 -75 -44 -75 -5 0 -7 -3
-3 -6 3 -4 -5 -27 -18 -53 -13 -25 -38 -80 -55 -121 -18 -41 -39 -89 -47 -107
-8 -17 -16 -37 -17 -45 -1 -7 -10 -31 -20 -53 -16 -36 -112 -309 -121 -345 -2
-8 -11 -39 -20 -67 -37 -127 -46 -160 -51 -193 -3 -19 -11 -44 -17 -55 -6 -11
-9 -21 -8 -23 3 -3 -14 -98 -19 -104 -2 -4 -7 -26 -14 -73 -3 -22 -11 -62 -16
-90 -5 -27 -15 -76 -21 -107 l-10 -58 -62 42 c-141 94 -342 276 -417 376 -14
19 -30 39 -35 45 -23 26 -96 149 -91 154 7 7 211 7 223 0 6 -4 13 -4 16 0 9 8
131 8 144 0 7 -4 14 -3 17 2 3 4 24 5 46 1 22 -4 42 -4 45 0 3 4 19 6 37 4 69
-8 63 -126 60 1258 l-2 1253 -1250 -1 c-687 0 -1252 -3 -1255 -6 -4 -3 -6 -23
-6 -44 2 -127 2 -150 1 -159 -1 -5 -1 -66 0 -135 1 -69 1 -132 1 -140 0 -8 0
-80 0 -160 0 -80 0 -152 0 -160 -3 -121 -1 -233 4 -240 3 -6 3 -10 -2 -10 -4
0 -7 -26 -6 -57 2 -32 3 -94 3 -138 0 -44 0 -127 0 -185 0 -124 0 -209 -1
-218 -1 -4 -1 -9 0 -12 5 -13 5 -140 1 -140 -6 0 -3 -179 4 -197 3 -7 2 -13
-2 -13 -4 0 -6 -26 -4 -57 1 -32 2 -98 1 -148 0 -49 -1 -96 -1 -102 3 -77 2
-146 -2 -150 -9 -9 15 -44 27 -40 7 2 24 0 39 -4 15 -4 30 -4 32 0 6 8 90 6
105 -3 5 -4 12 -3 15 2 5 8 79 7 102 -2 7 -3 15 -2 18 2 4 7 72 8 86 2 3 -1
10 -1 15 0 29 6 107 5 111 -2 3 -5 10 -5 16 -2 13 9 131 9 145 1 6 -4 13 -4
16 0 8 8 131 8 144 0 6 -4 13 -4 16 0 9 8 131 8 144 0 7 -4 14 -3 17 2 3 4 24
5 46 1 22 -4 42 -4 45 -1 5 9 90 5 104 -3 5 -4 12 -3 15 2 5 8 79 7 102 -2 7
-3 16 -2 18 3 5 8 88 6 112 -3 8 -3 14 -2 14 3 0 4 10 7 23 5 12 -1 27 -3 32
-3 6 -1 17 -18 24 -38 12 -33 38 -93 99 -223 47 -102 202 -349 268 -427 11
-12 29 -35 41 -50 56 -71 186 -207 270 -283 94 -85 211 -180 222 -180 3 0 6
-27 6 -60 0 -33 -4 -60 -8 -60 -5 0 -6 -4 -3 -9 3 -5 8 -96 11 -202 3 -107 7
-210 9 -229 3 -19 8 -66 11 -105 11 -115 19 -183 29 -240 2 -16 8 -55 11 -85
4 -30 8 -57 10 -60 2 -3 6 -26 10 -50 8 -51 13 -75 15 -75 1 0 3 -9 5 -20 1
-11 6 -33 9 -50 4 -16 9 -41 12 -54 4 -20 18 -79 38 -161 3 -8 10 -37 16 -65
7 -27 17 -54 21 -60 5 -5 9 -18 9 -30 0 -11 23 -85 50 -165 28 -80 52 -152 54
-160 2 -8 13 -36 25 -63 11 -26 21 -51 22 -55 9 -39 222 -506 239 -522 3 -3
16 -25 29 -50 19 -36 101 -175 174 -295 19 -31 111 -169 117 -175 3 -3 20 -27
39 -55 30 -43 186 -247 216 -282 5 -7 28 -33 50 -59 22 -26 47 -54 56 -62 14
-12 119 -14 685 -14 368 1 687 1 708 1 l39 1 -44 32 c-24 17 -49 36 -55 42 -6
6 -26 22 -44 36 -52 39 -118 95 -225 190 -62 56 -282 276 -352 352 -41 46
-124 146 -247 299 -36 44 -187 263 -221 319 -22 36 -42 67 -46 70 -25 23 -253
459 -305 587 l-22 52 42 28 c155 104 412 335 524 469 18 21 44 53 58 69 107
128 276 423 348 608 l32 82 891 3 891 2 0 1256 -1 1255 -46 -2 c-26 -1 -52 1
-59 5 -7 4 -12 4 -12 -1 0 -9 -214 -8 -230 2 -5 3 -10 3 -10 -2 0 -9 -214 -8
-230 2 -5 3 -10 3 -10 -2 0 -9 -214 -8 -230 2 -5 3 -10 3 -10 -2 0 -9 -214 -8
-230 2 -5 3 -10 3 -10 -2 0 -9 -214 -8 -230 2 -5 3 -10 3 -10 -2 0 -9 -214 -8
-230 2 -5 3 -10 3 -10 -2 0 -9 -214 -8 -230 2 -5 3 -10 3 -10 -2 0 -9 -214 -8
-230 2 -5 3 -10 3 -10 -2 0 -9 -214 -8 -230 2 -5 3 -10 3 -10 -2 0 -4 -52 -7
-115 -6 -63 1 -116 -1 -116 -5 -1 -4 -2 -568 -3 -1255 l-1 -1247 198 0 c108 0
197 -4 197 -8 0 -5 -12 -27 -27 -49 -16 -21 -32 -46 -38 -55 -53 -83 -200
-243 -284 -308 -17 -14 -37 -30 -44 -35 -39 -33 -116 -85 -126 -85 -6 0 -11
-4 -11 -9 0 -5 -10 -13 -22 -17 -13 -4 -25 -10 -28 -13 -8 -11 -193 -99 -223
-106 -15 -4 -30 -11 -33 -17 -8 -13 -34 11 -34 32 0 9 -3 20 -7 24 -5 4 -9 16
-9 27 -1 10 -3 21 -4 24 -1 3 -3 8 -4 13 -15 61 -36 153 -51 222 -7 36 -26
140 -31 175 -3 17 -6 39 -8 50 -2 11 -7 47 -11 80 -4 33 -9 74 -12 90 -2 17
-7 59 -9 95 -2 36 -7 106 -10 155 -9 117 -9 444 -1 565 11 162 16 224 21 255
3 17 8 57 12 90 3 33 8 69 10 80 3 11 7 36 10 55 3 19 7 46 10 60 2 14 7 41
10 60 3 19 7 43 10 52 3 10 7 30 10 45 2 16 7 39 11 53 11 43 9 36 28 123 3
12 13 52 24 89 11 36 17 69 13 72 -3 3 0 6 6 6 7 0 11 3 10 8 -4 10 24 105 34
118 5 7 8 16 7 20 -1 5 1 16 4 24 3 8 12 35 20 60 9 25 21 59 27 75 26 63 43
108 44 115 1 8 33 82 73 168 18 41 33 75 33 78 0 9 153 307 181 353 11 17 41
18 497 17 333 -1 489 2 496 10 8 7 11 299 9 970 0 527 -2 962 -2 967 -1 4
-440 7 -976 7 l-975 -1 2 -976z m1530 545 c2 -7 4 -258 3 -558 l0 -545 -545 0
c-300 -1 -552 2 -560 6 -13 6 -15 77 -13 556 1 301 2 549 2 551 1 1 250 2 555
2 434 0 555 -3 558 -12z m-2517 -967 c7 -1 10 -239 9 -693 0 -524 -3 -692 -12
-690 -7 1 -12 -2 -12 -7 0 -6 -10 -8 -22 -5 -13 2 -45 4 -73 4 -27 -1 -60 -1
-72 -1 -45 1 -83 1 -95 0 -7 0 -39 0 -70 1 -31 1 -61 -1 -67 -4 -5 -4 -12 -2
-16 3 -3 6 -15 7 -28 2 -12 -5 -31 -5 -42 -1 -11 4 -35 3 -54 -1 -19 -4 -42
-4 -50 0 -9 4 -27 6 -41 4 -33 -4 -82 -5 -177 -4 -45 1 -83 1 -95 0 -7 0 -39
0 -70 1 -31 1 -61 -1 -67 -4 -5 -4 -12 -2 -16 3 -3 6 -15 7 -28 2 -12 -5 -31
-5 -41 -1 -11 4 -34 4 -50 0 -17 -3 -46 -3 -63 1 -18 4 -33 4 -33 0 0 -10 -82
-3 -93 8 -7 7 -14 1175 -8 1366 1 20 7 20 689 19 378 -1 692 -2 697 -3z m3917
-1587 c1 -31 1 -57 -2 -59 -3 -2 -3 -56 0 -120 3 -64 3 -118 0 -120 -3 -2 -3
-56 0 -120 3 -64 3 -118 0 -120 -3 -2 -3 -56 0 -120 3 -64 3 -118 0 -120 -3
-2 -3 -56 0 -120 3 -64 3 -118 0 -120 -3 -2 -3 -56 0 -120 3 -64 3 -119 0
-121 -2 -3 -3 -21 -1 -40 2 -30 0 -34 -21 -35 -30 -1 -1327 -1 -1353 0 -20 1
-20 5 -19 694 1 380 2 693 3 695 0 1 313 2 695 2 l694 0 4 -56z"/>
</g>
</svg>
