<?xml version="1.0" standalone="no"?>
<!DOCTYPE svg PUBLIC "-//W3C//DTD SVG 20010904//EN"
 "http://www.w3.org/TR/2001/REC-SVG-20010904/DTD/svg10.dtd">
<svg version="1.0" xmlns="http://www.w3.org/2000/svg"
 width="1000.000000pt" height="1000.000000pt" viewBox="0 0 1000.000000 1000.000000"
 preserveAspectRatio="xMidYMid meet">
<metadata>
Created by potrace 1.11, written by Peter Selinger 2001-2013
</metadata>
<g transform="translate(0.000000,1000.000000) scale(0.100000,-0.100000)"
fill="#000000" stroke="none">
<path d="M4618 8420 c-10 -32 -18 -71 -18 -85 0 -45 27 -93 69 -122 52 -36 57
-51 28 -82 -74 -81 -101 -178 -99 -368 0 -56 -12 -63 -23 -13 -11 48 -60 107
-102 121 -41 13 -102 13 -140 -2 l-23 -9 29 -57 c46 -92 100 -127 177 -115 85
12 79 18 77 -87 -1 -51 -10 -119 -18 -150 -17 -57 -73 -161 -87 -161 -4 0 -8
-4 -8 -9 0 -5 -12 -22 -27 -38 -94 -98 -197 -239 -248 -342 -34 -68 -88 -211
-80 -211 2 0 -1 -15 -6 -32 -28 -98 -30 -429 -3 -520 5 -17 10 -42 19 -89 3
-14 16 -68 30 -120 14 -52 27 -101 29 -109 3 -8 25 -73 50 -143 l45 -128 -52
41 c-191 152 -299 266 -376 399 -57 99 -113 260 -127 365 -3 21 -9 59 -14 85
-13 66 -5 380 10 421 1 3 3 10 4 15 23 121 131 345 167 345 5 0 24 -16 44 -35
62 -63 124 -71 208 -29 82 42 83 42 40 81 -45 41 -85 63 -121 67 -33 3 -90
-18 -119 -46 -36 -34 -44 -16 -10 23 91 102 118 136 148 190 19 32 40 60 46
63 7 3 30 -4 50 -17 76 -44 140 -35 212 32 28 26 51 53 51 60 0 6 -23 23 -52
36 -38 18 -64 23 -102 20 -47 -3 -55 -7 -97 -54 -25 -28 -48 -51 -52 -51 -5 0
7 33 43 115 15 35 44 142 58 220 8 43 12 45 92 31 79 -12 134 22 185 115 l25
48 -22 7 c-61 20 -127 20 -167 0 -33 -18 -81 -85 -84 -117 -1 -10 -5 -19 -10
-19 -4 0 -8 26 -7 58 0 31 -1 75 -4 97 -2 22 -4 47 -5 55 -1 12 -3 12 -10 2
-6 -9 -15 6 -31 50 -29 84 -67 112 -153 115 -97 2 -102 -5 -65 -84 26 -54 59
-90 97 -105 24 -10 41 -10 116 -5 30 2 30 2 30 -51 0 -30 -3 -56 -7 -59 -5 -2
-6 -8 -3 -13 6 -9 -18 -131 -34 -173 -12 -32 -28 -29 -29 5 0 105 -60 164
-174 172 -59 4 -62 -3 -40 -76 30 -100 74 -139 164 -142 26 -2 51 -6 55 -9 15
-16 -81 -227 -103 -227 -6 0 -15 17 -19 38 -16 86 -72 134 -158 134 -28 1 -62
-2 -74 -6 l-21 -7 29 -67 c41 -91 78 -117 171 -115 l68 1 -16 -28 c-9 -15 -39
-51 -66 -81 -64 -71 -180 -209 -196 -234 -46 -72 -115 -234 -139 -327 -15 -59
-31 -108 -34 -108 -3 0 -4 21 -3 48 15 222 1 441 -32 521 -19 44 -19 44 24 25
20 -9 56 -16 79 -15 65 1 95 20 152 100 l31 44 -37 17 c-52 23 -125 25 -165 4
-37 -19 -50 -34 -73 -81 -17 -36 -40 -43 -50 -15 -7 21 -37 55 -93 105 -39 34
-43 43 -17 37 6 -1 29 -2 51 -1 64 1 107 32 143 104 37 74 38 87 9 88 -13 1
-39 3 -58 4 -89 5 -165 -57 -172 -139 -1 -14 -8 -28 -14 -30 -16 -6 -99 79
-130 134 -33 58 -29 74 21 75 54 2 105 28 132 68 21 31 48 141 38 157 -2 4
-30 3 -62 -2 -81 -13 -136 -57 -147 -120 -3 -13 -5 -25 -6 -28 -1 -3 -1 -17 0
-32 1 -14 -3 -29 -8 -32 -6 -4 -21 37 -35 96 -14 57 -26 96 -27 88 -2 -8 -2
-19 -1 -23 4 -22 -22 9 -35 44 -19 46 -75 99 -107 100 -12 0 -30 2 -39 4 -22
4 -100 -13 -112 -25 -12 -12 49 -105 88 -135 39 -29 88 -36 146 -19 24 7 46
12 47 10 5 -5 13 -46 18 -94 4 -47 32 -141 46 -156 12 -13 11 -26 0 -26 -5 0
-12 9 -16 20 -3 10 -21 34 -40 53 -38 38 -87 52 -138 41 -33 -7 -107 -41 -107
-49 0 -16 99 -106 126 -115 44 -15 101 -10 139 11 37 21 63 17 83 -13 9 -13
44 -51 79 -85 34 -35 59 -63 55 -63 -4 0 -27 14 -52 31 -64 43 -115 36 -187
-29 -13 -10 -23 -22 -23 -25 0 -3 25 -19 55 -36 79 -45 125 -41 187 17 15 13
33 22 41 19 21 -8 72 -84 86 -128 39 -121 30 -201 -12 -109 -25 55 -75 91
-129 94 -49 3 -138 -22 -138 -39 0 -17 68 -101 98 -121 34 -22 108 -26 151 -8
19 8 40 13 47 10 9 -4 11 -55 7 -208 -2 -112 -4 -211 -4 -220 0 -26 -12 -22
-46 15 -45 48 -92 89 -148 127 -27 18 -52 36 -55 39 -7 9 -58 37 -120 68 -51
26 -70 40 -70 53 0 3 16 16 35 30 98 72 112 175 38 283 l-27 39 -48 -54 c-26
-29 -53 -68 -59 -87 -18 -52 -3 -132 33 -183 22 -31 1 -30 -89 1 -48 17 -107
33 -130 37 -50 8 -60 27 -32 57 27 29 56 86 60 117 4 40 -17 97 -51 140 -55
69 -61 68 -104 -11 -29 -54 -37 -78 -35 -112 3 -47 28 -99 66 -137 21 -21 23
-26 9 -28 -36 -7 -250 79 -260 104 -3 8 20 40 54 74 41 42 60 70 61 88 4 81
-7 120 -54 184 l-20 27 -38 -42 c-60 -65 -83 -118 -74 -175 4 -26 15 -61 26
-78 20 -34 24 -54 10 -54 -16 0 -171 153 -171 169 0 9 24 39 54 68 59 56 72
90 62 162 -5 40 -20 73 -43 99 -7 7 -13 18 -13 23 0 34 -81 -41 -116 -109 -22
-42 -17 -102 12 -161 26 -52 25 -83 -2 -47 -8 11 -14 16 -14 12 0 -11 32 -68
48 -84 6 -7 12 -20 12 -29 0 -12 -10 -13 -60 -8 -72 8 -117 -5 -152 -43 -28
-30 -63 -115 -54 -130 9 -16 124 -13 165 4 40 16 77 63 92 118 5 20 13 36 17
36 4 0 31 -25 60 -55 29 -31 82 -75 118 -99 35 -23 61 -46 57 -49 -3 -4 -23
-7 -42 -7 -43 0 -98 -27 -124 -61 -17 -24 -50 -129 -42 -137 11 -12 95 -3 129
14 52 25 75 58 85 122 4 29 11 55 14 58 3 4 43 -10 89 -29 46 -20 109 -44 141
-53 71 -22 75 -38 11 -50 -37 -7 -96 -39 -115 -62 -23 -27 -38 -77 -43 -145
l-5 -59 43 4 c64 7 132 43 158 86 17 28 23 53 24 105 1 38 6 73 11 78 12 12
179 -55 280 -113 57 -33 70 -44 62 -55 -6 -7 -23 -13 -38 -13 -42 -1 -106 -35
-134 -72 -19 -24 -29 -55 -36 -103 -6 -38 -8 -72 -5 -77 7 -11 79 -1 124 18
74 31 101 74 106 168 1 32 7 63 12 68 9 9 137 -109 185 -171 84 -106 147 -253
227 -521 22 -74 43 -143 46 -153 5 -16 0 -17 -53 -11 -32 3 -78 10 -103 16
-25 5 -58 11 -73 13 -145 20 -436 134 -424 168 2 6 17 15 33 21 105 38 155
118 133 211 -4 17 -10 42 -13 58 -4 15 -11 27 -16 27 -24 0 -137 -81 -154
-111 -21 -36 -27 -111 -13 -166 9 -36 -1 -43 -27 -18 -8 8 -17 15 -20 15 -4 0
-29 16 -56 35 -27 19 -54 35 -60 35 -5 0 -10 5 -10 10 0 6 -6 10 -12 10 -18 1
-61 35 -64 52 -1 7 13 24 31 38 91 69 103 165 33 268 -29 42 -29 42 -53 25
-14 -10 -25 -24 -25 -30 0 -7 -4 -13 -10 -13 -5 0 -21 -20 -35 -43 -36 -63
-35 -128 6 -191 16 -27 29 -50 27 -51 -2 -2 -42 10 -89 26 -47 16 -97 31 -110
33 -13 3 -25 5 -26 7 -4 2 -12 4 -55 13 -21 5 -38 12 -38 16 0 4 14 25 31 46
62 78 73 116 53 182 -11 39 -76 132 -92 132 -15 0 -82 -118 -87 -153 -8 -48 9
-102 47 -150 16 -21 28 -42 26 -47 -4 -12 -94 21 -147 54 -60 38 -97 72 -148
139 -52 67 -51 86 7 112 84 38 127 110 114 191 -6 41 -34 114 -43 114 -3 0
-32 -20 -63 -45 -86 -67 -108 -124 -82 -215 15 -49 2 -82 -15 -39 -5 13 -34
62 -65 108 -31 46 -56 86 -56 90 -1 3 -18 24 -40 45 -33 34 -37 43 -29 64 5
13 22 36 38 51 79 74 82 178 7 266 -19 22 -36 38 -38 35 -2 -3 -20 -25 -39
-50 -19 -25 -41 -60 -48 -78 -19 -46 -7 -115 28 -168 31 -45 28 -66 -5 -36
-36 32 -141 94 -184 107 -21 7 -22 6 -9 -6 8 -8 23 -18 33 -24 24 -14 20 -31
-7 -28 -126 14 -160 -3 -221 -109 l-27 -46 38 -13 c105 -34 200 8 228 101 9
30 24 50 38 50 17 0 123 -116 170 -188 94 -142 122 -220 68 -193 -26 13 -114
13 -146 1 -36 -14 -54 -32 -99 -104 -42 -65 -42 -65 49 -84 22 -4 46 -7 53 -6
6 1 20 2 30 3 10 0 37 13 60 28 31 20 47 41 66 85 14 32 29 58 33 58 4 0 25
-28 45 -63 56 -95 102 -148 171 -201 48 -36 147 -86 169 -86 9 0 9 -3 1 -11
-6 -6 -34 -12 -61 -14 -61 -3 -122 -36 -147 -77 -10 -17 -26 -57 -35 -89 l-18
-59 21 -1 c65 -4 120 2 149 17 41 21 79 54 73 65 -3 4 -1 10 5 14 5 3 12 27
16 53 3 26 12 56 20 66 13 19 17 18 116 -15 57 -18 130 -47 163 -62 72 -35
229 -137 221 -144 -3 -3 -26 -9 -53 -14 -99 -19 -147 -80 -158 -202 l-7 -67
39 5 c64 10 103 26 138 57 40 35 58 81 54 143 -4 65 9 72 62 33 82 -61 311
-178 347 -178 10 0 22 -4 27 -8 15 -12 68 -28 204 -61 122 -31 252 -66 281
-78 18 -8 17 -7 56 -16 19 -5 47 -27 75 -59 24 -28 51 -59 59 -69 9 -9 48 -53
87 -96 39 -43 83 -94 99 -113 16 -19 31 -37 34 -40 17 -15 150 -200 150 -208
0 -6 4 -12 8 -14 18 -7 142 -243 167 -318 1 -3 7 -18 14 -35 21 -52 80 -225
77 -225 -2 0 -48 16 -101 35 -123 44 -287 84 -361 89 -33 2 -64 10 -75 20 -11
9 -23 16 -27 16 -5 0 -42 31 -83 69 l-74 68 32 17 c18 9 41 16 51 16 35 0 89
28 116 60 14 18 26 35 27 38 0 4 2 14 4 22 8 31 18 86 19 105 1 16 -5 20 -34
20 -43 1 -125 -28 -152 -52 -32 -29 -50 -73 -53 -131 -2 -30 -8 -59 -13 -64
-14 -14 -51 43 -126 194 -54 107 -67 142 -62 163 4 15 33 53 66 85 74 73 83
111 51 218 l-21 71 -33 -17 c-70 -37 -127 -120 -127 -182 0 -8 12 -42 25 -75
28 -69 19 -96 -17 -49 -66 84 -181 172 -294 225 -84 39 -98 64 -88 152 9 79
-1 120 -42 161 -30 30 -124 91 -129 84 -1 -2 -8 -28 -17 -58 -14 -51 -15 -84
-3 -136 7 -31 55 -77 105 -99 75 -33 84 -61 13 -38 -136 43 -238 72 -242 68
-2 -3 11 -11 30 -19 l34 -14 -27 -7 c-15 -4 -31 -4 -37 -1 -6 4 -31 9 -57 12
-67 7 -123 -28 -158 -98 -31 -61 -32 -73 -8 -75 90 -8 140 -5 169 10 31 17 83
80 83 102 0 6 15 18 33 27 l33 16 140 -72 c164 -85 204 -108 204 -118 0 -13
-38 -9 -52 5 -21 21 -88 49 -121 51 -18 1 -50 -7 -72 -18 -39 -18 -115 -90
-115 -107 0 -16 129 -69 166 -69 42 0 98 27 139 68 19 19 44 32 68 35 35 5 42
1 91 -47 28 -28 66 -71 83 -96 39 -57 123 -225 123 -245 0 -23 -24 -18 -51 11
-57 60 -128 83 -192 62 -39 -13 -116 -69 -117 -84 0 -16 98 -82 138 -93 18 -5
44 -7 59 -5 38 7 113 43 113 54 0 6 17 10 38 10 36 0 41 -3 63 -47 27 -53 113
-171 138 -190 27 -19 5 -26 -96 -28 -161 -5 -259 -18 -374 -51 -13 -4 -27 25
-69 138 -29 79 -61 162 -71 185 -11 24 -19 46 -19 50 0 3 -20 39 -45 79 -63
101 -153 180 -275 242 -55 29 -100 50 -100 47 0 -3 -16 1 -35 9 -20 9 -38 15
-40 16 -3 0 -6 0 -7 1 -2 0 -14 2 -27 5 -66 12 -293 123 -371 182 -58 43 -162
151 -158 164 3 7 28 24 57 40 30 15 64 37 76 48 38 36 51 119 30 195 -13 50
-23 57 -53 37 -15 -9 -29 -19 -32 -23 -3 -3 -15 -11 -27 -18 -62 -32 -94 -123
-72 -204 5 -20 7 -42 4 -48 -8 -11 -44 35 -139 179 -38 56 -86 122 -107 146
-43 49 -43 62 1 105 84 83 83 178 -1 274 l-34 38 -45 -67 c-41 -60 -45 -72
-45 -125 1 -49 6 -65 33 -104 18 -25 32 -50 32 -55 0 -12 -13 -13 -25 -1 -6 4
-57 27 -114 51 -58 23 -121 52 -141 65 -51 32 -126 120 -156 182 -31 64 -24
80 49 108 65 26 107 76 112 136 4 51 -14 149 -27 149 -37 0 -158 -94 -167
-130 -11 -43 -11 -92 -2 -125 17 -62 0 -62 -25 0 -32 78 -65 119 -117 144 -56
27 -70 56 -49 96 20 39 24 132 7 164 -21 41 -87 95 -138 114 -23 8 -36 -24
-43 -108 -8 -87 16 -133 99 -184 41 -25 49 -46 15 -36 -13 3 8 -12 45 -34 73
-43 103 -68 94 -78 -3 -3 -19 1 -35 10 -39 19 -121 19 -152 -1 -28 -18 -33
-23 -73 -71 l-28 -34 43 -19 c86 -39 160 -26 204 37 51 71 51 71 69 54 9 -9
18 -22 19 -30 2 -8 5 -21 8 -29 3 -8 13 -40 23 -70 53 -162 136 -260 275 -326
47 -23 100 -48 118 -56 25 -11 30 -17 18 -21 -9 -4 -16 -3 -16 2 0 8 -48 23
-80 24 -43 2 -80 -16 -123 -60 l-47 -48 23 -17 c12 -10 38 -21 57 -25 80 -16
122 0 168 67 15 21 34 41 42 43 26 7 113 -97 179 -214 35 -63 71 -122 79 -131
8 -10 12 -18 8 -18 -4 0 5 -12 19 -27 14 -15 25 -31 25 -35 0 -18 122 -151
183 -199 l49 -39 -134 5 c-73 2 -146 6 -163 9 -56 9 -170 37 -180 44 -6 4 -26
53 -45 110 -37 113 -87 210 -138 267 -55 62 -179 127 -334 175 -45 14 -47 29
-9 72 41 48 53 76 53 120 -1 60 -71 167 -98 150 -6 -4 -26 -33 -44 -65 -40
-72 -38 -122 8 -190 36 -52 38 -57 17 -57 -51 0 -305 157 -305 189 0 11 14 45
31 77 37 71 36 123 -5 184 -23 36 -102 99 -110 89 -1 -2 -12 -29 -24 -59 -43
-108 -34 -168 35 -231 46 -43 57 -67 21 -47 -13 7 -25 15 -28 18 -10 11 -60
40 -60 36 0 -8 62 -64 137 -123 40 -32 69 -61 65 -65 -4 -3 -30 0 -59 7 -73
19 -130 8 -171 -33 -23 -23 -82 -104 -82 -113 0 -20 115 -46 188 -41 25 2 126
98 117 111 -2 5 7 19 21 32 20 19 28 21 42 12 35 -24 99 -59 162 -87 36 -16
119 -55 185 -87 178 -84 240 -151 305 -324 41 -110 36 -109 -220 72 -175 124
-289 174 -463 204 -66 11 -244 8 -297 -5 -46 -12 -115 -14 -121 -4 -4 6 4 34
16 62 46 101 28 168 -62 235 -30 22 -59 41 -64 41 -9 0 -40 -101 -44 -146 -6
-57 44 -138 103 -168 18 -9 30 -21 26 -27 -5 -9 -29 -8 -104 6 -8 2 -42 14
-75 27 -68 27 -76 46 -47 108 9 19 17 38 18 43 1 4 2 8 4 10 9 10 9 65 0 91
-12 35 -51 96 -62 96 -4 0 -24 11 -44 25 -38 26 -44 26 -48 3 -1 -7 -4 -17 -8
-23 -3 -5 -11 -36 -18 -67 -17 -76 3 -133 66 -185 47 -40 58 -61 21 -42 -21
11 -21 11 3 -16 14 -15 44 -40 68 -55 49 -32 44 -39 -28 -45 -54 -5 -104 -26
-133 -57 -10 -10 -29 -50 -42 -89 l-24 -70 22 -8 c19 -7 62 -6 107 2 73 13
126 72 139 156 10 66 21 77 58 63 50 -20 127 -29 231 -26 56 1 104 -1 106 -5
3 -4 -9 -26 -25 -50 -16 -24 -29 -53 -30 -65 0 -12 -2 -28 -4 -37 -4 -24 28
-88 69 -134 34 -39 35 -40 50 -20 77 102 75 188 -6 262 -42 38 -45 53 -10 55
216 12 436 -67 612 -222 14 -12 36 -30 50 -41 l25 -19 -24 -19 c-59 -46 -285
-141 -336 -141 -15 0 -10 26 20 94 33 76 14 136 -67 221 -38 39 -39 40 -54 20
-79 -103 -75 -208 12 -280 65 -54 60 -69 -21 -62 -36 3 -69 8 -74 12 -5 3 -22
7 -38 9 -15 3 -53 12 -83 21 -30 8 -75 16 -100 16 -57 1 -75 17 -95 85 -29
100 -78 135 -202 148 -62 6 -65 0 -46 -73 27 -106 89 -155 196 -153 61 1 77
-12 27 -23 -34 -7 -170 -94 -170 -108 0 -5 11 -2 25 7 35 23 34 -3 -2 -29 -34
-26 -64 -92 -53 -119 4 -12 8 -25 8 -31 2 -24 36 -85 47 -85 23 0 82 76 89
114 5 28 2 48 -14 82 -12 24 -25 44 -30 44 -5 0 -3 13 3 29 8 21 24 34 61 50
84 34 133 39 211 22 78 -18 93 -37 50 -65 -15 -10 -35 -36 -45 -58 -19 -44
-16 -70 19 -149 l19 -41 40 37 c41 37 47 47 56 98 5 28 -16 91 -34 102 -11 7
-14 45 -4 45 3 0 34 -7 67 -16 69 -18 209 -21 248 -6 40 16 41 5 3 -46 -29
-37 -35 -53 -33 -86 3 -40 52 -136 69 -136 15 0 70 83 76 115 6 36 -13 89 -44
121 -27 29 -13 46 53 68 28 9 93 38 146 65 95 47 118 51 139 21 13 -18 204
-102 280 -124 117 -33 161 -40 340 -51 256 -15 307 -22 425 -57 232 -67 376
-194 449 -397 14 -40 24 -77 20 -82 -3 -5 -2 -9 3 -9 4 0 9 -12 10 -27 1 -16
3 -67 6 -115 l4 -86 -81 -41 c-45 -23 -84 -41 -87 -41 -3 0 -20 13 -37 28 -18
16 -73 48 -124 73 -145 69 -171 84 -176 97 -2 7 15 29 38 49 83 75 94 146 38
257 l-34 67 -47 -45 c-51 -49 -77 -97 -77 -145 0 -33 28 -111 39 -111 5 0 13
-11 19 -25 35 -75 -70 -6 -225 151 -57 57 -103 108 -103 114 0 5 14 22 31 37
66 59 75 115 31 206 l-27 57 -39 -37 c-69 -66 -79 -132 -30 -206 14 -22 24
-41 22 -43 -2 -2 -29 19 -59 46 -29 27 -79 63 -109 79 -54 29 -110 53 -110 48
0 -2 24 -21 53 -42 28 -22 55 -44 59 -50 12 -17 -1 -18 -27 -1 -40 26 -106 31
-150 10 -36 -17 -104 -96 -105 -121 0 -14 63 -33 130 -40 37 -3 53 1 87 24 23
15 47 39 54 55 24 59 36 58 103 -13 33 -36 70 -76 81 -90 11 -13 39 -47 63
-75 23 -27 42 -53 42 -57 0 -12 -23 -8 -39 7 -61 54 -139 68 -205 37 -41 -21
-106 -81 -106 -99 0 -15 122 -71 162 -75 45 -5 108 21 140 58 13 15 35 33 49
40 24 13 28 12 45 -8 18 -21 85 -81 135 -122 13 -11 45 -31 69 -44 25 -13 52
-30 61 -37 8 -8 20 -14 25 -14 19 0 118 -70 101 -71 -77 -6 -79 -6 -231 26
-21 5 -16 3 -226 69 -80 25 -170 50 -200 57 -68 14 -159 71 -234 147 -71 72
-68 68 -153 182 -75 100 -129 160 -178 198 -31 25 -32 22 18 85 44 55 45 106
6 183 -18 35 -37 64 -42 64 -13 0 -67 -62 -79 -90 -25 -59 -12 -125 32 -165
39 -35 23 -44 -35 -20 -31 12 -58 25 -62 29 -3 3 -13 6 -22 6 -9 0 12 -18 47
-41 89 -58 176 -139 163 -152 -8 -8 -19 -3 -39 16 -71 68 -159 80 -236 31 -48
-30 -82 -72 -70 -84 5 -5 40 -25 78 -45 60 -31 76 -35 115 -30 48 7 103 35
124 64 22 31 55 32 77 3 11 -15 24 -32 29 -38 18 -23 81 -147 76 -152 -3 -3
-20 8 -38 26 -38 37 -92 61 -127 57 -26 -3 -137 -53 -145 -65 -2 -3 12 -24 33
-44 58 -61 120 -77 188 -51 24 9 44 20 44 25 0 4 14 13 32 21 28 12 33 11 42
-6 6 -10 30 -43 54 -72 24 -30 42 -56 40 -58 -2 -1 -32 -5 -68 -9 -56 -5 -96
-11 -135 -20 -52 -13 -103 -28 -117 -36 -35 -20 -53 -9 -103 63 -74 106 -179
207 -254 245 -35 18 -72 32 -81 32 -24 0 -32 47 -14 81 23 46 32 101 20 136
-13 37 -93 125 -110 120 -19 -5 -57 -94 -58 -134 0 -52 22 -93 72 -133 68 -54
59 -56 -120 -34 -73 9 -92 11 -112 13 -26 2 -41 39 -44 102 -3 80 -25 113
-103 150 -35 16 -66 27 -70 24 -3 -4 -6 -37 -6 -75 0 -53 5 -75 21 -97 21 -29
73 -60 111 -66 31 -4 40 -16 23 -27 -16 -10 -11 -18 16 -25 11 -3 62 -16 114
-30 52 -14 101 -23 107 -20 7 2 13 0 13 -5 0 -6 -20 -10 -44 -10 -46 0 -100
-29 -120 -65 -6 -11 -15 -23 -21 -27 -5 -4 -7 -8 -3 -8 4 0 1 -18 -7 -40 -16
-44 -21 -40 54 -44 72 -4 143 52 150 119 4 43 28 66 60 59 53 -13 147 -65 192
-106 44 -41 159 -189 159 -204 0 -4 7 -16 16 -25 16 -17 15 -19 -12 -29 -66
-26 -143 -42 -211 -45 -64 -3 -73 -1 -73 14 0 10 12 28 26 42 37 34 62 93 57
135 -4 36 -58 144 -73 144 -14 0 -69 -62 -84 -95 -26 -54 -13 -125 33 -180 10
-11 17 -27 16 -35 -1 -25 -51 -16 -135 24 -55 26 -76 40 -187 128 -68 53 -113
80 -164 97 -47 15 -61 45 -63 130 -1 54 -6 76 -22 98 -26 34 -134 97 -146 85
-16 -16 -21 -117 -8 -156 13 -41 57 -78 112 -95 52 -17 58 -41 10 -42 -73 -1
-171 -24 -183 -42 -10 -15 -65 14 -82 43 -25 41 -70 78 -107 87 -31 8 -154 -8
-168 -22 -9 -9 45 -90 78 -116 44 -36 90 -41 157 -18 43 15 55 16 65 5 10 -10
23 -10 68 4 86 26 210 21 280 -12 51 -23 170 -107 249 -175 l33 -29 -93 -47
c-52 -25 -109 -49 -127 -52 -19 -3 -39 -7 -45 -8 -8 -1 -12 22 -12 73 0 56 -5
83 -18 103 -18 28 -121 86 -133 75 -3 -4 -8 -31 -9 -60 -5 -77 15 -112 81
-144 30 -14 54 -31 54 -36 0 -13 -73 0 -135 24 -38 15 -54 17 -73 9 -12 -6
-48 -11 -79 -11 -71 0 -114 -27 -144 -89 -11 -24 -18 -46 -15 -48 3 -3 1 -14
-4 -23 -12 -23 3 -29 61 -24 72 8 87 13 123 44 24 22 38 45 46 80 16 66 31 73
86 43 58 -33 130 -51 193 -49 57 1 72 -13 43 -42 -48 -48 -60 -116 -33 -184
11 -29 78 -98 95 -98 5 0 6 3 3 6 -4 4 2 19 12 33 60 88 59 171 -3 233 -36 36
-48 61 -31 63 29 4 108 41 160 76 l41 27 49 -23 c61 -27 138 -46 202 -49 45
-2 79 2 178 19 l40 7 -35 -27 c-19 -15 -73 -52 -120 -82 -47 -30 -99 -69 -116
-85 -33 -31 -44 -27 -59 22 -12 39 -45 80 -74 92 -29 11 -150 17 -156 7 -10
-15 19 -84 48 -116 37 -40 84 -53 140 -41 47 10 64 2 44 -20 -15 -18 -57 -96
-57 -108 0 -4 10 6 22 22 43 55 103 106 178 150 82 48 90 51 90 29 0 -8 -4
-15 -9 -15 -19 0 -63 -80 -65 -118 -4 -58 53 -162 89 -162 22 0 78 110 81 160
3 44 -1 55 -36 101 -21 29 -37 56 -34 61 3 4 37 27 77 50 40 23 106 66 147 97
72 53 101 64 215 86 46 8 184 6 245 -4 59 -10 259 -76 273 -90 6 -6 -32 -20
-56 -21 -16 0 -187 -65 -235 -89 -34 -17 -67 -29 -72 -26 -5 3 -12 21 -16 39
-12 67 -67 105 -155 109 l-64 2 3 -35 c3 -42 28 -86 63 -112 29 -22 91 -30
127 -17 36 14 25 -6 -20 -36 -24 -15 -71 -50 -105 -76 -64 -50 -73 -49 -73 4
0 33 -42 85 -80 100 -19 8 -56 15 -83 16 l-47 2 5 -32 c17 -94 58 -133 143
-136 29 0 56 -4 59 -7 3 -3 -9 -20 -28 -37 -34 -31 -34 -31 -4 -14 17 10 44
27 60 39 42 30 105 66 105 60 0 -3 -12 -25 -26 -49 -28 -49 -33 -106 -12 -146
17 -32 89 -100 99 -93 15 9 51 120 50 152 -1 44 -16 71 -64 113 l-42 37 60 28
c33 16 62 32 65 35 3 3 21 11 40 18 40 15 64 24 102 39 39 16 48 -5 15 -34
-14 -12 -36 -44 -50 -70 -30 -62 -22 -116 25 -186 28 -40 57 -66 62 -56 1 2
13 19 27 38 80 109 81 197 3 275 -14 14 -23 32 -21 40 3 7 32 19 64 25 32 7
69 16 83 20 83 28 138 31 207 12 121 -35 178 -45 263 -45 139 -1 251 26 440
105 101 42 222 86 255 93 97 19 133 23 218 23 72 0 122 -6 190 -24 90 -24 297
-118 297 -135 0 -5 5 -9 11 -9 15 0 93 -62 138 -109 39 -41 86 -137 97 -196 4
-22 6 -92 4 -155 -7 -328 -1 -494 24 -617 3 -12 7 -48 11 -80 3 -32 8 -71 10
-88 14 -101 17 -152 17 -255 0 -63 -2 -131 -5 -150 -23 -146 -34 -186 -90
-320 -30 -71 -102 -209 -116 -220 -3 -3 -19 -25 -35 -50 -31 -48 -204 -225
-271 -277 -52 -41 -128 -97 -210 -153 -35 -25 -65 -48 -65 -52 0 -4 30 -17 68
-28 113 -35 227 -19 371 55 66 33 120 40 166 20 27 -11 42 -28 66 -78 33 -67
72 -97 122 -97 22 0 107 35 117 48 11 14 96 69 128 82 70 28 150 31 242 8 74
-18 255 -99 310 -138 17 -12 30 -20 30 -17 0 2 -9 29 -19 60 -11 31 -22 79
-26 106 -6 46 -4 51 13 51 11 0 25 -6 31 -14 15 -18 83 -43 155 -55 74 -14
266 -14 266 -2 0 6 -10 17 -22 26 -41 27 -219 208 -277 280 -106 130 -181 262
-236 415 -30 83 -28 78 -49 175 -37 176 -37 387 -2 730 8 76 16 231 21 420 5
166 8 197 20 262 3 18 6 34 5 35 -2 7 40 119 62 163 93 194 276 309 553 349
22 4 76 12 121 19 177 28 372 2 539 -73 32 -15 155 -60 220 -81 214 -70 368
-69 596 4 27 8 53 11 61 6 8 -4 30 -11 49 -14 19 -3 48 -9 64 -14 17 -5 56
-14 88 -22 32 -7 60 -16 63 -21 3 -4 -10 -26 -29 -48 -54 -63 -67 -141 -33
-203 23 -43 69 -107 76 -107 28 0 99 124 100 173 0 30 -35 117 -48 117 -12 1
-43 50 -37 59 9 16 237 -81 274 -117 11 -11 7 -18 -26 -47 -42 -35 -65 -89
-57 -132 3 -14 15 -50 27 -79 l23 -54 31 22 c77 56 103 150 57 217 -28 41 -30
51 -9 51 8 0 15 -4 15 -10 0 -5 7 -10 15 -10 8 0 15 -4 15 -10 0 -5 5 -10 11
-10 7 0 34 -16 60 -35 59 -42 74 -46 31 -7 -18 16 -32 31 -32 34 0 3 26 7 58
10 87 6 125 41 142 131 l8 38 -64 -5 c-35 -3 -75 -13 -88 -21 -29 -19 -67 -91
-59 -111 7 -20 -27 -31 -41 -12 -6 8 -48 40 -93 72 -46 32 -83 59 -83 61 0 2
26 2 58 2 68 -2 104 18 132 73 25 48 32 90 17 91 -54 6 -123 -3 -152 -21 -32
-20 -65 -72 -65 -103 0 -28 -17 -27 -91 7 -86 40 -149 62 -239 85 l-65 17 50
20 c28 10 52 19 55 20 3 0 17 6 32 12 28 12 120 37 173 47 33 6 179 7 210 1
44 -8 105 -18 110 -17 11 3 66 -30 141 -84 42 -31 106 -72 141 -91 66 -37 76
-56 44 -83 -58 -51 -67 -138 -20 -214 50 -82 53 -83 89 -36 42 52 60 113 48
158 -10 35 -11 37 -55 86 -32 36 -17 43 34 15 93 -50 190 -129 225 -185 18
-27 19 -28 13 -5 -8 29 -44 92 -58 101 -21 14 5 30 36 23 50 -11 98 -5 129 17
31 22 64 79 69 119 4 25 3 25 -69 24 -90 -1 -116 -17 -155 -98 l-29 -58 -26
25 c-15 14 -65 50 -112 81 -112 74 -132 88 -149 104 -15 14 -6 14 74 -3 94
-21 224 -5 319 38 l53 24 39 -24 c49 -31 142 -73 160 -73 24 0 15 -25 -25 -68
-59 -63 -63 -110 -19 -204 l34 -71 37 33 c44 38 66 76 71 122 4 39 -6 70 -41
120 -13 20 -22 41 -19 46 3 6 27 8 52 7 56 -4 144 18 201 50 38 21 45 22 58 9
8 -9 15 -20 15 -25 0 -5 0 -11 0 -14 0 -3 6 -21 14 -40 29 -68 73 -94 170 -98
l58 -3 -6 38 c-15 92 -78 150 -161 148 -71 -2 -75 -2 -75 15 0 12 -13 10 -70
-11 -76 -27 -150 -39 -150 -23 0 5 8 12 18 15 102 30 146 99 120 190 -11 40
-15 41 -66 14 -70 -37 -87 -63 -88 -138 -1 -37 -2 -73 -3 -80 -3 -31 -133 10
-239 75 l-34 21 94 75 c111 89 180 131 233 142 22 5 47 10 55 11 40 9 140 1
161 -11 14 -9 88 -22 84 -15 -7 12 26 22 39 11 13 -10 71 -25 101 -26 28 -1
86 29 108 55 21 25 59 91 55 95 -2 1 -32 9 -68 17 -95 22 -146 3 -203 -73 -43
-57 -66 -65 -117 -39 -27 14 -70 24 -116 27 -53 4 -74 10 -74 19 0 8 6 14 13
14 6 0 35 11 63 24 66 31 98 89 91 165 -8 82 -14 86 -81 51 -32 -17 -63 -36
-69 -43 -33 -34 -51 -113 -36 -153 9 -25 -21 -81 -49 -91 -64 -21 -148 -70
-191 -111 -67 -64 -208 -144 -277 -158 -41 -8 -41 16 -1 75 35 51 41 100 20
151 -15 37 -70 100 -87 100 -19 0 -69 -109 -71 -156 -2 -47 26 -104 66 -132
11 -7 19 -21 19 -31 0 -16 -8 -18 -72 -16 -79 3 -149 17 -205 40 l-35 15 18
27 c9 16 29 46 43 68 81 125 208 234 291 250 11 2 25 7 30 10 22 14 48 -6 55
-41 19 -105 78 -145 198 -135 18 1 24 36 7 46 -6 4 -8 10 -6 14 3 4 -5 24 -17
46 -27 47 -92 83 -140 78 -49 -6 -11 13 43 21 104 16 237 66 174 66 -29 0 -3
20 42 31 85 22 129 92 118 189 -3 25 -7 46 -8 48 -6 5 -122 -51 -137 -66 -13
-15 -28 -43 -34 -64 -2 -5 -3 -32 -4 -61 -1 -65 -16 -87 -61 -92 -19 -2 -57
-6 -85 -9 -27 -3 -76 -8 -107 -12 -49 -5 -58 -4 -58 10 0 9 4 16 8 16 15 0 83
71 92 96 6 14 10 40 10 57 0 37 -44 137 -60 137 -14 0 -80 -69 -100 -105 -20
-38 -18 -93 7 -143 23 -47 16 -83 -17 -92 -61 -17 -139 -68 -205 -134 -79 -80
-115 -122 -115 -135 0 -5 -3 -11 -7 -13 -5 -1 -21 -20 -36 -41 -20 -26 -33
-35 -40 -29 -14 11 -126 46 -177 56 -19 4 -66 10 -105 12 -38 3 -71 7 -72 8
-1 1 11 15 26 32 15 16 40 49 55 72 30 47 42 51 79 22 34 -27 90 -50 122 -50
36 0 94 32 133 74 l33 35 -53 28 c-103 53 -155 50 -224 -14 -20 -18 -40 -33
-45 -33 -10 0 29 73 84 156 46 69 60 72 112 23 72 -67 152 -72 249 -13 33 20
63 39 65 41 9 7 -55 65 -92 85 -76 38 -150 27 -213 -33 -19 -18 -37 -27 -46
-24 -22 9 54 83 152 148 76 50 68 53 -27 11 -56 -24 -76 -19 -42 12 50 45 63
111 36 174 -13 33 -62 90 -76 90 -12 0 -70 -117 -72 -146 -3 -37 21 -91 54
-127 25 -26 27 -57 5 -57 -18 0 -111 -102 -192 -210 -44 -58 -98 -125 -120
-148 -43 -46 -149 -132 -162 -132 -4 0 -15 -7 -25 -16 -9 -8 -32 -17 -49 -19
-18 -3 -57 -11 -86 -20 -30 -9 -56 -15 -59 -15 -3 0 -21 -6 -40 -14 -19 -8
-35 -13 -35 -11 0 2 -16 -3 -35 -11 -32 -13 -186 -58 -240 -69 -11 -3 -33 -8
-50 -11 -38 -9 -127 -13 -138 -6 -10 5 72 62 91 62 6 0 12 4 12 9 0 5 14 14
31 21 54 23 142 85 214 152 79 74 79 74 144 9 64 -64 131 -71 225 -25 82 40
84 46 39 91 -21 21 -51 45 -67 53 -27 14 -104 19 -136 8 -25 -8 -80 -43 -80
-50 0 -5 -9 -8 -21 -8 l-20 0 20 27 c11 16 33 42 48 59 15 17 46 53 68 80 50
60 115 124 126 124 5 0 16 -14 24 -30 43 -82 111 -111 210 -89 74 16 80 26 48
75 -54 84 -134 112 -217 76 -25 -12 -46 -17 -46 -12 0 5 27 28 60 51 33 23 60
43 60 45 0 5 -75 -23 -101 -38 -35 -19 -99 -68 -139 -105 -19 -18 -37 -28 -39
-22 -2 6 1 14 6 18 19 12 45 74 45 106 0 41 -21 81 -65 123 l-35 34 -27 -55
c-14 -31 -28 -68 -30 -84 -4 -37 32 -112 61 -125 46 -21 37 -43 -66 -145 -111
-111 -155 -153 -165 -153 -3 0 -16 -9 -27 -20 -39 -36 -62 -9 -27 31 45 51 56
125 29 187 -19 42 -85 112 -106 112 -7 0 -26 -34 -43 -75 -46 -111 -38 -155
47 -240 24 -24 41 -48 39 -52 -6 -9 -41 -27 -179 -92 -48 -22 -103 -55 -124
-73 l-36 -32 -85 43 -85 44 6 91 c3 50 8 103 11 119 3 15 7 37 9 50 17 96 97
230 183 306 82 73 230 144 343 166 14 3 36 7 50 10 62 11 167 22 305 30 110 6
192 14 225 20 14 3 37 7 51 10 97 18 250 80 340 137 l54 35 106 -51 c58 -28
129 -59 157 -69 58 -20 63 -34 27 -73 -28 -30 -40 -78 -30 -122 8 -37 74 -113
81 -94 3 7 12 18 19 25 24 25 42 72 41 107 -3 40 -30 98 -52 107 -7 3 -14 11
-14 18 0 11 7 11 33 4 58 -18 196 -13 260 9 71 24 79 15 43 -53 -15 -26 -26
-60 -26 -74 0 -32 33 -89 68 -117 l27 -22 22 40 c46 80 36 164 -23 203 -45 29
-31 50 44 66 81 17 141 10 220 -26 67 -31 72 -45 37 -108 -40 -69 -32 -120 31
-182 l37 -38 25 49 c45 88 38 141 -25 200 -39 36 -43 51 -8 28 31 -20 33 -8 3
19 -37 31 -90 63 -130 76 -53 17 -47 28 15 29 28 1 61 3 72 6 11 2 23 5 27 5
4 1 21 15 38 31 37 36 59 86 67 146 l5 43 -59 -5 c-79 -7 -119 -21 -150 -52
-26 -26 -52 -78 -59 -120 -7 -39 -35 -58 -84 -61 -25 -1 -90 -13 -145 -27
-118 -31 -222 -40 -222 -19 0 8 17 26 36 41 62 46 76 72 76 140 0 41 -7 74
-20 100 -37 72 -41 73 -96 18 -74 -73 -89 -141 -49 -231 29 -65 27 -76 -12
-68 -61 12 -153 48 -228 88 -126 67 -123 56 -34 128 195 154 351 218 539 221
114 2 116 -2 50 -73 -25 -26 -45 -54 -46 -61 0 -7 -2 -21 -4 -31 -5 -27 14
-86 42 -129 14 -21 28 -38 32 -38 3 0 26 26 51 57 42 54 45 62 45 118 0 50 -5
66 -27 96 -16 20 -28 40 -28 46 0 6 46 9 116 8 83 0 137 4 187 17 41 10 75 14
80 9 4 -4 11 -27 13 -50 7 -61 30 -107 66 -134 31 -23 103 -45 138 -41 8 0 27
2 42 2 l27 2 -25 74 c-36 106 -83 147 -175 151 -69 3 -77 13 -32 43 51 35 107
88 76 73 -19 -10 -23 -9 -23 4 0 8 4 15 9 15 5 0 26 18 48 39 42 43 64 96 57
139 -6 37 -35 125 -43 135 -8 8 -86 -45 -109 -72 -45 -56 -52 -151 -17 -205
18 -27 26 -69 16 -83 -14 -20 -173 -72 -223 -73 -26 0 -11 26 27 49 41 24 85
97 87 142 0 19 -4 52 -10 74 -6 22 -10 43 -9 46 1 3 -4 13 -12 22 -10 13 -17
14 -35 5 -49 -25 -95 -71 -114 -111 -23 -50 -21 -87 9 -156 10 -24 19 -49 19
-56 0 -13 -42 -13 -125 0 -22 3 -53 8 -70 11 -50 8 -161 5 -227 -6 -170 -27
-296 -84 -478 -215 -116 -83 -220 -149 -226 -143 -2 2 10 41 25 86 26 75 66
147 109 198 25 29 127 97 187 124 77 35 135 60 138 58 3 -1 188 95 214 112 26
17 45 5 69 -44 49 -101 134 -133 244 -93 30 11 57 21 58 23 5 4 -72 106 -94
125 -36 31 -95 42 -149 28 -55 -15 -69 -17 -79 -11 -5 3 0 10 12 16 11 6 46
34 78 61 67 57 137 123 114 107 -41 -28 -110 -62 -110 -54 0 6 16 22 35 36 36
28 61 67 76 119 6 22 2 47 -16 100 -14 39 -30 76 -35 81 -13 13 -97 -59 -121
-104 -26 -48 -24 -103 7 -164 43 -82 41 -90 -29 -136 -34 -22 -67 -44 -73 -49
-14 -12 -97 -54 -146 -74 -36 -15 -38 -15 -35 3 2 11 13 31 24 44 50 58 49
136 -3 214 l-35 53 -28 -23 c-51 -43 -79 -130 -59 -188 4 -14 24 -43 43 -65
20 -21 34 -44 32 -49 -2 -6 -48 -27 -103 -48 -167 -63 -231 -103 -299 -189
-21 -27 -80 -132 -77 -137 1 -1 -5 -19 -13 -39 -9 -20 -23 -62 -31 -92 -9 -31
-20 -61 -25 -66 -8 -10 -91 -36 -134 -41 -11 -1 -20 -3 -20 -4 0 -5 -63 -10
-190 -15 l-140 -7 35 28 c116 93 201 201 325 417 109 190 189 264 210 196 10
-32 75 -89 104 -91 57 -3 151 23 151 43 0 5 -18 29 -41 54 -59 64 -102 74
-183 43 -76 -29 -40 4 42 38 37 16 86 39 109 52 48 27 133 103 133 120 0 7 4
12 8 12 13 0 69 118 97 207 32 99 45 113 74 82 12 -13 21 -27 21 -31 0 -32 80
-76 133 -73 43 2 117 33 117 49 0 6 -23 33 -49 60 -42 42 -55 49 -98 53 -32 3
-62 0 -87 -11 -45 -19 -46 -19 -46 -6 0 9 29 30 136 97 17 10 16 11 -6 6 l-25
-4 28 23 c66 53 112 105 117 128 8 49 -5 176 -20 185 -10 6 -92 -36 -115 -60
-58 -58 -72 -132 -41 -208 16 -36 13 -87 -5 -87 -12 0 -92 -56 -110 -77 -18
-23 -59 -105 -59 -121 0 -6 -5 -14 -12 -18 -8 -5 -9 5 -3 37 22 119 1 173 -88
230 -34 21 -67 39 -74 39 -14 0 -43 -125 -33 -150 1 -3 4 -16 6 -30 3 -14 9
-26 14 -28 6 -2 10 -9 10 -15 0 -15 52 -50 102 -71 49 -21 68 -62 39 -86 -3
-3 -15 -22 -25 -43 -50 -99 -131 -161 -288 -221 -54 -21 -100 -42 -103 -47 -8
-11 -25 -12 -25 0 0 5 15 34 33 64 48 80 45 131 -16 222 l-45 67 -27 -29 c-56
-59 -81 -136 -64 -199 5 -18 29 -54 53 -80 49 -55 49 -63 -4 -121 -20 -21 -75
-97 -123 -169 -47 -72 -94 -137 -103 -145 -16 -13 -17 -11 -9 31 12 68 8 128
-12 163 -10 18 -48 51 -83 74 -58 39 -65 41 -74 25 -15 -25 -18 -40 -21 -109
-5 -83 23 -126 107 -168 34 -16 63 -35 65 -41 6 -17 -114 -135 -185 -183 -75
-50 -243 -132 -322 -156 -226 -69 -321 -118 -423 -221 -46 -46 -118 -149 -116
-168 0 -5 -3 -12 -8 -15 -9 -7 -28 -55 -99 -249 -32 -86 -53 -131 -61 -128
-24 9 -169 37 -217 42 -27 3 -98 6 -158 7 -114 2 -126 8 -87 43 29 26 102 129
128 182 27 53 48 54 135 8 51 -27 73 -34 103 -30 43 5 93 23 93 34 0 4 10 12
23 17 12 6 31 19 43 29 l21 17 -32 29 c-43 37 -108 65 -148 63 -52 -2 -79 -15
-122 -54 -40 -38 -73 -48 -67 -21 6 27 74 164 109 220 50 79 144 168 174 165
43 -5 52 -10 87 -43 72 -69 138 -76 245 -28 66 30 66 34 2 98 -38 38 -104 67
-140 62 -34 -5 -103 -35 -115 -50 -7 -7 -24 -14 -38 -14 -23 0 -23 2 14 28 43
30 100 62 232 127 81 41 88 42 114 29 15 -8 35 -29 44 -47 39 -78 90 -107 174
-99 92 8 93 9 66 68 -43 93 -111 127 -206 103 -37 -10 -53 -10 -62 -1 -8 8 -4
13 16 18 14 3 26 10 26 14 0 8 -29 4 -60 -7 -8 -3 -19 -7 -25 -8 -5 -2 -52
-16 -102 -33 -71 -23 -93 -27 -93 -16 0 7 22 23 49 34 75 33 111 76 118 141 5
51 -7 118 -26 147 -11 19 -128 -61 -154 -105 -22 -38 -27 -92 -14 -144 15 -63
-9 -101 -89 -139 -38 -18 -89 -46 -114 -63 -25 -17 -45 -29 -46 -27 -1 8 -128
-123 -140 -145 -9 -15 -15 -17 -24 -9 -9 9 -7 21 6 50 47 107 32 176 -52 247
-17 14 -41 28 -55 32 -22 6 -26 2 -38 -42 -37 -128 -19 -194 75 -260 17 -12
31 -28 32 -35 0 -7 3 -22 6 -33 9 -31 -154 -340 -178 -340 -15 0 -20 8 -22 40
-8 102 -30 142 -99 175 -54 26 -134 34 -142 14 -4 -12 6 -73 23 -136 12 -44
82 -89 158 -102 16 -3 37 -12 45 -21 15 -14 11 -20 -35 -64 -81 -76 -135 -109
-190 -116 -101 -11 -222 -40 -343 -81 -69 -23 -127 -41 -128 -40 -3 2 51 161
70 206 5 14 12 34 14 44 2 11 11 28 20 38 9 10 13 18 9 18 -11 0 83 180 141
270 53 81 151 214 189 255 11 11 37 41 58 65 55 64 176 198 211 236 25 27 52
39 165 72 74 22 149 43 165 47 272 64 441 131 606 240 45 30 85 52 90 50 4 -3
7 -32 7 -64 -1 -81 24 -126 88 -162 29 -17 68 -30 94 -31 l45 -3 -1 35 c-3 98
-26 155 -76 193 -30 23 -46 29 -117 42 -13 2 -25 6 -26 7 -9 9 236 157 270
165 5 1 56 19 113 39 116 42 129 39 138 -27 12 -82 52 -140 111 -160 39 -13
139 -17 149 -6 15 15 -29 129 -65 170 -21 23 -105 59 -129 56 -4 -1 -19 -1
-34 0 -34 1 -37 17 -5 26 110 33 250 154 321 278 21 37 42 67 46 67 4 0 18
-24 30 -52 46 -107 125 -142 248 -108 23 6 42 16 42 23 0 25 -81 132 -112 149
-36 19 -112 23 -151 9 -46 -18 -50 1 -14 70 80 155 214 317 249 304 14 -6 31
-33 33 -56 1 -22 55 -81 82 -90 40 -13 137 -13 151 1 1 1 6 3 11 4 20 2 17 13
-18 71 -25 42 -48 66 -74 78 -36 18 -117 30 -117 18 0 -4 -11 -8 -25 -9 -14
-1 -25 2 -25 7 0 11 34 41 48 41 7 0 12 5 12 10 0 6 -3 10 -8 10 -13 0 -165
-89 -187 -110 -34 -32 -36 -13 -5 38 34 55 45 117 30 158 -18 45 -89 134 -103
128 -7 -2 -28 -30 -47 -61 -56 -92 -42 -178 41 -247 38 -32 37 -59 -3 -101
-18 -18 -67 -87 -108 -154 -71 -113 -96 -133 -71 -58 31 92 6 159 -82 223 -32
24 -63 41 -68 38 -15 -9 -41 -112 -38 -152 4 -58 44 -111 108 -143 68 -34 70
-47 12 -119 -77 -97 -129 -136 -241 -180 -43 -17 -50 -18 -50 -4 0 8 11 27 25
42 30 33 53 96 49 140 -2 30 -71 161 -85 162 -12 0 -75 -77 -88 -108 -30 -73
-19 -129 38 -194 35 -40 40 -64 14 -71 -10 -3 -58 -15 -108 -28 -49 -12 -109
-30 -133 -41 -53 -22 -52 -22 -52 -3 0 8 4 15 8 15 13 0 44 71 49 112 6 45
-22 110 -65 157 -18 18 -32 37 -32 42 0 25 -29 3 -57 -43 -59 -99 -52 -169 26
-247 23 -23 41 -48 41 -56 0 -8 -19 -25 -41 -37 -54 -30 -62 -35 -136 -86 -78
-53 -96 -56 -72 -10 17 31 18 99 2 138 -16 40 -60 90 -80 90 -7 0 -13 4 -13 8
0 5 -16 16 -37 26 -34 16 -49 13 -54 -14 0 -3 -3 -14 -5 -25 -13 -52 -10 -106
6 -142 18 -42 45 -65 111 -97 23 -12 43 -25 43 -29 1 -5 -12 -16 -29 -25 -16
-9 -33 -21 -36 -25 -3 -5 -9 -8 -13 -8 -3 1 -23 -6 -44 -15 -42 -17 -148 -54
-174 -60 -10 -2 -26 -6 -35 -8 -94 -22 -167 -36 -287 -53 l-38 -5 7 33 c4 19
10 39 13 44 4 6 7 15 8 20 4 23 48 167 81 265 43 127 104 247 166 328 54 70
176 184 188 176 5 -3 9 -30 9 -61 0 -104 55 -174 151 -191 69 -12 84 -10 82
13 -5 55 -15 108 -23 130 -21 54 -97 104 -160 105 -8 0 -22 5 -30 10 -13 8
-11 12 10 27 72 53 311 160 330 148 5 -3 10 -32 9 -63 0 -31 2 -66 5 -77 2
-11 5 -23 5 -26 2 -15 58 -67 89 -83 18 -9 55 -20 82 -23 l49 -6 -4 29 c-2 16
-6 50 -9 77 -3 26 -13 60 -22 76 -22 37 -86 78 -135 86 -55 10 -48 28 19 49
53 17 114 41 172 70 44 22 62 15 67 -24 6 -57 8 -64 27 -97 20 -33 52 -52 101
-60 17 -3 37 -6 45 -8 8 -1 23 2 33 7 13 7 15 13 8 27 -6 10 -11 28 -13 42
-11 72 -67 122 -143 128 -55 4 -63 16 -26 36 44 22 66 40 140 113 63 63 81 68
87 26 4 -26 32 -79 51 -96 29 -25 86 -39 152 -37 60 2 61 2 54 28 -19 82 -70
144 -126 155 -19 4 -57 4 -85 0 -58 -7 -70 4 -43 37 10 13 26 40 35 59 13 28
14 31 2 16 -27 -34 -30 -8 -6 42 32 64 35 129 7 174 -34 55 -87 110 -100 105
-21 -8 -66 -101 -70 -143 -5 -56 16 -102 73 -156 28 -25 50 -51 50 -58 0 -11
-86 -100 -143 -148 -40 -33 -51 -18 -23 31 29 50 38 106 24 151 -13 41 -100
142 -115 133 -25 -16 -65 -100 -68 -145 -4 -62 18 -109 71 -152 56 -45 54 -65
-13 -101 -57 -31 -186 -73 -204 -67 -7 2 -2 15 14 33 15 17 31 35 36 41 16 19
31 87 26 121 -4 30 -58 138 -75 148 -13 8 -85 -78 -101 -120 -25 -63 -15 -110
41 -186 16 -23 29 -43 27 -45 -2 -3 -138 -42 -168 -49 -8 -2 -32 -10 -53 -19
-65 -27 -69 -22 -37 41 24 46 29 68 27 110 -3 54 -15 75 -84 151 l-30 33 -30
-43 c-51 -74 -61 -152 -26 -206 9 -15 37 -46 62 -70 l46 -43 -96 -52 c-123
-69 -212 -133 -287 -207 -34 -33 -61 -55 -62 -48 -1 7 -3 111 -5 231 -5 239
-7 230 57 203 35 -15 99 -15 134 0 20 8 84 73 85 86 0 4 7 14 16 23 20 20 12
29 -43 48 -97 33 -178 -1 -218 -90 -21 -49 -37 -42 -30 15 6 50 20 101 39 135
26 49 62 97 72 97 6 0 24 -12 40 -26 35 -31 66 -44 102 -44 28 0 94 30 124 57
16 15 15 18 -24 48 -68 54 -134 56 -188 5 -16 -15 -32 -25 -34 -22 -3 3 22 33
57 67 34 34 71 73 81 87 21 29 44 30 91 4 33 -18 92 -21 127 -7 24 10 66 46
107 93 l24 28 -56 26 c-99 45 -164 26 -226 -64 -27 -39 -39 -36 -18 5 18 35
35 104 43 174 3 30 9 57 13 61 3 4 27 1 51 -6 87 -26 144 -1 201 87 l40 61
-26 13 c-14 8 -50 15 -80 17 -75 4 -123 -27 -160 -101 -26 -54 -42 -70 -32
-33 3 11 2 22 -3 25 -4 3 -11 -12 -14 -33 -11 -65 -39 -162 -46 -162 -4 0 -10
25 -13 55 -3 33 -14 67 -28 86 -26 36 -86 66 -144 71 -40 3 -40 3 -39 -32 4
-119 60 -188 160 -195 26 -2 49 -6 52 -10 21 -21 -112 -195 -149 -195 -11 0
-18 3 -17 8 1 4 -4 26 -12 49 -15 48 -51 86 -96 100 -31 11 -125 10 -143 -1
-12 -8 28 -98 61 -139 35 -42 109 -60 171 -41 15 4 3 -13 -38 -52 -33 -33 -70
-73 -81 -89 -19 -25 -24 -27 -38 -16 -9 7 -16 20 -16 27 0 8 -15 29 -33 48
-37 38 -82 51 -146 42 -34 -4 -50 -11 -90 -33 -10 -6 83 -114 109 -128 38 -20
95 -21 146 -2 l40 15 -17 -52 c-10 -29 -22 -81 -26 -117 -8 -65 -8 -334 -1
-422 6 -62 -6 -48 -21 28 -32 151 -106 323 -184 426 -34 46 -130 158 -182 213
-34 35 -66 87 -60 96 3 6 10 8 15 5 26 -16 83 -15 123 3 46 21 71 50 102 120
20 46 14 60 -25 63 -8 0 -26 2 -40 3 -14 2 -39 -1 -57 -6 -33 -9 -93 -53 -93
-68 0 -5 -5 -21 -12 -37 -6 -15 -12 -34 -14 -41 -9 -44 -32 -17 -78 87 -39 92
-47 121 -33 122 7 0 30 2 53 4 53 3 106 29 131 63 20 28 56 151 44 153 -53 11
-140 -8 -173 -38 -29 -26 -47 -66 -52 -113 -7 -73 -19 -69 -40 13 -22 83 -29
134 -30 202 l-1 60 62 -3 c90 -5 134 22 174 104 16 34 29 66 29 72 0 24 -104
28 -160 6 -44 -18 -88 -79 -92 -127 -3 -29 -8 -33 -24 -17 -10 10 -11 -3 -15
-138 -2 -47 -7 -78 -12 -73 -4 4 -9 15 -11 24 -1 8 -8 22 -15 31 -7 9 -10 16
-7 16 4 0 -4 12 -17 26 -29 31 -88 52 -131 47 -37 -4 -96 -22 -96 -30 0 -16
72 -120 92 -133 42 -26 111 -33 155 -14 39 16 46 7 58 -71 9 -52 11 -63 15
-67 1 -2 3 -10 5 -18 6 -32 58 -176 67 -187 6 -7 8 -17 6 -24 -2 -6 -21 9 -41
35 -62 75 -154 84 -240 23 l-29 -20 44 -44 c75 -79 134 -91 227 -47 34 16 57
22 59 16 5 -15 76 -124 98 -152 11 -12 42 -48 71 -78 28 -31 49 -60 47 -64 -3
-4 -14 1 -26 12 -49 45 -125 63 -179 42 -31 -12 -86 -58 -99 -82 -8 -15 0 -22
54 -49 95 -47 157 -39 223 29 19 19 38 30 47 27 19 -7 89 -128 116 -199 49
-132 64 -224 64 -393 0 -246 -35 -407 -127 -595 l-42 -84 -7 67 c-4 42 -15 80
-29 103 -23 38 -17 53 23 54 22 0 76 46 92 79 11 22 13 127 3 137 -10 10 -84
-23 -115 -51 -36 -33 -37 -35 -35 -100 1 -36 -2 -65 -7 -63 -37 14 -148 202
-137 232 3 7 22 17 42 20 20 4 50 20 66 35 25 24 31 39 36 91 l6 63 -38 -7
c-76 -15 -120 -64 -118 -134 1 -40 0 -42 -13 -25 -13 16 -14 15 -9 -19 3 -22
1 -38 -5 -38 -6 0 -10 7 -10 16 0 29 -40 82 -69 92 -29 10 -102 9 -121 -3 -7
-4 -1 -24 17 -57 21 -38 38 -55 71 -69 23 -10 48 -16 55 -14 6 2 24 7 39 9 24
4 29 1 34 -22 4 -15 22 -57 40 -94 19 -38 30 -68 26 -68 -4 0 -24 9 -45 19
-65 33 -129 14 -182 -54 -24 -32 -24 -35 -7 -44 93 -50 158 -42 218 25 l41 45
31 -48 c50 -78 56 -111 38 -218 -11 -71 -85 -153 -307 -337 -24 -20 -55 -45
-68 -57 l-24 -21 -19 23 c-11 12 -29 33 -41 47 -17 20 -135 174 -164 216 -38
51 -87 160 -110 239 -41 139 -41 136 -15 190 69 148 88 185 93 185 4 0 25 -18
47 -40 51 -51 96 -56 181 -20 l50 22 -22 30 c-31 41 -83 71 -123 70 -34 -1
-94 -27 -105 -44 -4 -6 -9 -7 -12 -1 -7 12 29 68 92 143 47 55 57 67 103 108
l26 24 38 -36 c57 -53 117 -57 186 -11 16 10 15 13 -5 37 -24 27 -62 50 -90
55 -15 3 -39 -6 -102 -36 -25 -11 26 28 75 59 30 19 57 38 60 42 3 4 17 10 30
12 14 2 26 5 28 7 3 2 19 6 35 8 9 1 9 3 -1 10 -9 5 -1 10 26 13 85 12 127 54
135 135 6 61 0 66 -64 47 -84 -25 -110 -55 -119 -139 l-5 -49 -60 -22 c-33
-12 -73 -29 -90 -38 -49 -26 -51 -18 -7 19 28 25 43 47 48 71 8 43 -12 117
-38 140 -18 17 -20 16 -54 -22 -62 -69 -70 -121 -30 -189 14 -22 22 -45 18
-51 -4 -5 -25 -21 -47 -36 -22 -16 -64 -50 -92 -78 -55 -52 -65 -51 -37 2 34
66 12 140 -57 185 -33 22 -42 24 -49 13 -5 -8 -7 -17 -4 -21 2 -4 0 -10 -5
-14 -15 -9 -24 -87 -13 -116 10 -25 46 -63 86 -92 21 -15 24 -9 -42 -85 -13
-15 -48 -67 -80 -116 -54 -85 -57 -88 -62 -60 -4 16 -5 72 -4 124 2 104 8 161
30 285 2 11 7 36 10 55 19 108 58 266 68 272 6 4 20 -2 32 -13 12 -11 43 -28
70 -38 43 -17 52 -17 87 -5 22 8 61 30 88 50 55 40 54 42 -18 87 -72 45 -148
38 -204 -19 -37 -38 -64 -45 -55 -14 11 39 15 55 19 80 26 155 30 170 49 170
10 0 18 -4 18 -9 0 -16 88 -43 125 -37 49 8 73 21 122 69 l43 41 -42 28 c-52
34 -117 45 -160 27 -29 -12 -98 -75 -98 -89 0 -4 -6 -7 -13 -7 -9 0 -13 9 -10
26 4 26 4 157 0 261 l-2 55 51 -3 c77 -5 125 23 158 92 39 83 38 86 -42 83
-80 -2 -111 -19 -138 -74 -18 -37 -20 -43 -23 -70 -2 -20 -21 -15 -21 5 0 26
-36 162 -70 261 -28 85 -29 110 -4 112 8 1 18 2 23 3 21 3 72 48 87 77 15 30
16 140 1 156 -4 3 -27 -2 -51 -11 -43 -17 -95 -64 -97 -89 0 -7 -2 -22 -5 -35
-2 -12 0 -40 5 -62 11 -48 5 -51 -15 -7 -14 31 -14 23 1 -33 11 -42 54 -238
56 -255 4 -48 -2 -49 -36 -12 -41 45 -87 66 -129 60 -36 -5 -116 -49 -116 -63
0 -16 100 -90 123 -91 58 -4 127 13 127 31 0 9 40 21 41 12 0 -4 3 -16 5 -27
9 -40 11 -295 3 -347 -5 -29 -11 -68 -14 -87 -9 -57 -64 -264 -82 -311 -9 -21
-10 -28 -12 -45 -2 -32 -16 -13 -18 26 -2 36 -27 106 -43 119 -3 3 -19 22 -34
43 -23 30 -26 40 -16 52 7 8 18 15 25 15 23 0 73 55 83 92 7 26 6 52 -3 93 -8
31 -16 59 -18 62 -7 6 -56 -20 -83 -44 -49 -43 -64 -118 -33 -175 15 -28 11
-42 -7 -27 -21 17 -53 82 -75 149 -19 58 -25 51 -10 -12 5 -20 6 -40 3 -43 -3
-3 -21 9 -39 27 -29 28 -41 33 -82 32 -50 0 -115 -35 -108 -58 7 -23 95 -74
124 -71 39 4 83 22 83 35 0 5 8 10 18 10 11 0 31 -25 55 -68 21 -37 49 -85 62
-107 13 -22 22 -41 21 -43 -2 -1 -25 9 -51 23 -80 42 -139 31 -203 -39 l-32
-36 22 -14 c39 -25 112 -44 146 -39 21 4 51 22 80 49 38 36 48 41 55 29 9 -17
10 -123 2 -225 -5 -62 -15 -235 -18 -327 -1 -24 -4 -43 -7 -43 -11 0 2 -280
15 -330 2 -8 7 -31 10 -50 11 -67 66 -221 110 -306 41 -78 149 -253 164 -264
9 -7 111 -149 111 -154 0 -3 -6 -11 -12 -18 -7 -7 -31 -36 -53 -63 -62 -77
-69 -86 -81 -99 -26 -28 -166 -249 -203 -320 -39 -75 -121 -269 -121 -286 0
-5 -5 -21 -11 -37 -10 -27 -12 -24 -43 67 -19 52 -49 129 -69 170 -66 139 -91
221 -90 290 3 108 15 226 27 255 17 40 32 40 101 -1 70 -41 120 -38 192 11 31
22 57 44 57 50 -1 22 -93 76 -136 79 -56 4 -85 -7 -130 -51 -21 -20 -40 -34
-44 -30 -7 6 75 178 90 189 10 7 56 -11 56 -22 0 -4 6 -7 13 -8 6 -1 28 -5 48
-8 41 -7 74 8 128 54 21 18 31 34 26 42 -11 18 -86 50 -120 50 -36 0 -88 -30
-110 -64 -27 -41 -44 -24 -30 32 7 26 11 83 9 126 -4 79 -13 116 -15 60 -1
-16 -3 -38 -5 -49 -2 -11 -5 -32 -7 -48 -5 -48 -22 -34 -24 20 -2 61 -23 106
-59 130 -30 19 -114 42 -131 36 -15 -6 -8 -70 13 -131 18 -49 80 -92 133 -92
51 0 61 -16 43 -68 -19 -57 -61 -132 -73 -132 -6 0 -8 -4 -5 -9 3 -5 -1 -12
-9 -15 -19 -7 -25 7 -23 54 3 70 -51 144 -114 156 -13 2 -34 6 -48 9 -30 6
-62 -3 -55 -15 3 -5 8 -28 11 -52 14 -99 62 -153 147 -161 27 -3 51 -8 54 -10
3 -3 -12 -33 -32 -66 -30 -49 -38 -71 -39 -116 0 -30 -2 -55 -2 -55 -2 0 -187
344 -218 404 -26 52 -30 71 -29 135 1 94 12 243 21 296 9 51 35 56 93 18 34
-22 54 -28 99 -28 49 0 62 5 108 38 28 21 52 42 52 47 0 15 -72 63 -114 75
-53 16 -104 1 -150 -44 -30 -29 -66 -41 -66 -23 0 40 92 245 134 297 l23 28
38 -37 c72 -70 133 -75 223 -18 l23 15 -38 39 c-60 61 -126 69 -196 23 -15 -9
-31 -15 -37 -13 -13 4 70 107 87 107 6 1 15 6 19 12 3 6 -1 10 -12 9 -36 -4
-35 0 4 45 58 66 64 122 19 195 -32 54 -49 62 -66 37 -9 -12 -22 -29 -29 -37
-20 -20 -42 -74 -42 -104 0 -32 18 -75 44 -104 11 -12 21 -29 22 -37 1 -9 -25
-44 -59 -79 -34 -35 -73 -82 -87 -105 -14 -22 -28 -41 -31 -41 -3 0 -5 33 -5
73 1 63 -2 77 -24 104 -33 40 -54 53 -112 69 l-48 12 0 -70 c0 -44 6 -83 16
-105 16 -33 76 -83 101 -83 6 0 23 -4 37 -10 l25 -9 -35 -72 c-19 -39 -48
-111 -65 -161 -29 -90 -33 -106 -45 -184 -3 -24 -10 -42 -14 -39 -15 9 -69
188 -86 285 -3 14 -7 32 -9 40 -17 62 -24 279 -12 375 25 193 92 344 258 581
111 157 130 206 133 341 1 58 10 64 51 37 55 -36 146 -22 194 29 71 76 73 80
54 90 -42 24 -111 43 -143 39 -45 -5 -74 -23 -109 -73 -32 -43 -45 -49 -47
-22 -1 10 -5 52 -9 93 -4 41 -7 102 -7 135 0 126 5 133 68 90 20 -14 44 -25
53 -26 9 0 26 -2 39 -3 31 -4 89 25 137 68 39 34 40 35 20 51 -31 24 -75 46
-102 51 -14 3 -28 6 -32 6 -26 6 -80 -21 -117 -59 -40 -40 -44 -42 -44 -21 0
33 53 114 109 168 l46 44 -39 -22 c-21 -13 -40 -21 -41 -20 -2 2 5 21 15 44
46 100 27 168 -67 232 -17 12 -35 22 -40 22 -4 0 -16 -27 -25 -60z"/>
<path d="M450 4380 c0 -5 5 -10 11 -10 5 0 7 5 4 10 -3 6 -8 10 -11 10 -2 0
-4 -4 -4 -10z"/>
</g>
</svg>
